<?xml version="1.0" standalone="no"?>
<!DOCTYPE svg PUBLIC "-//W3C//DTD SVG 20010904//EN"
 "http://www.w3.org/TR/2001/REC-SVG-20010904/DTD/svg10.dtd">
<svg version="1.0" xmlns="http://www.w3.org/2000/svg"
 width="300.000000pt" height="237.000000pt" viewBox="0 0 300.000000 237.000000"
 preserveAspectRatio="xMidYMid meet">
<metadata>
Created by potrace 1.10, written by Peter Selinger 2001-2011
</metadata>
<g transform="translate(0.000000,237.000000) scale(0.100000,-0.100000)"
fill="#000000" stroke="none">
<path d="M0 2310 c0 -57 2 -61 32 -80 21 -13 44 -18 66 -15 44 6 83 -10 76
-30 -3 -8 -1 -15 4 -15 16 0 22 14 16 37 -5 17 -17 23 -54 28 -43 6 -48 10
-52 35 -5 33 14 31 30 -3 9 -19 11 -19 11 -4 1 10 -4 38 -10 63 -10 37 -15 44
-35 44 -27 0 -33 -27 -9 -36 15 -6 21 -25 8 -23 -29 5 -36 -2 -20 -19 21 -23
22 -52 2 -52 -14 0 -21 36 -16 77 1 8 -5 10 -14 7 -11 -5 -15 1 -15 20 0 14
-4 26 -10 26 -6 0 -10 -27 -10 -60z m33 -27 c3 -16 1 -32 -4 -37 -6 -6 -9 -5
-9 5 0 7 -3 24 -6 37 -4 12 -2 22 4 22 5 0 12 -12 15 -27z"/>
<path d="M35 2360 c3 -5 8 -10 11 -10 2 0 4 5 4 10 0 6 -5 10 -11 10 -5 0 -7
-4 -4 -10z"/>
<path d="M172 2320 c-1 -28 2 -58 7 -68 9 -14 10 -11 11 16 0 17 5 32 11 32 8
0 7 6 -2 17 -12 14 -12 16 0 8 11 -6 13 -4 8 9 -4 10 -7 22 -7 27 0 5 -6 9
-12 9 -8 0 -14 -18 -16 -50z"/>
<path d="M477 2198 c12 -95 34 -256 48 -358 14 -102 25 -188 25 -192 0 -5 -12
-8 -26 -8 -26 0 -26 -2 -22 -49 4 -43 2 -51 -17 -61 -11 -6 -25 -10 -31 -9
-14 5 -84 -24 -84 -34 0 -9 -18 -6 -52 8 -11 4 -18 3 -18 -4 0 -6 5 -11 11
-11 7 0 17 -7 23 -16 10 -14 15 -13 39 6 15 12 44 24 64 27 21 3 44 12 50 21
7 9 14 14 16 11 7 -11 37 -140 37 -163 0 -14 10 -34 22 -46 12 -11 18 -23 14
-27 -4 -4 -12 -1 -17 7 -8 11 -9 2 -6 -33 3 -31 11 -53 23 -62 11 -8 15 -15
10 -15 -5 0 -3 -7 4 -15 14 -17 8 -31 -9 -20 -6 3 -9 11 -6 16 4 5 1 9 -4 9
-6 0 -11 -7 -11 -15 0 -8 -9 -15 -21 -15 -11 0 -18 -4 -15 -9 3 -4 28 -8 56
-8 46 0 50 1 50 24 0 13 -4 22 -9 19 -5 -3 -12 10 -16 30 -7 42 1 59 10 21 4
-15 13 -31 21 -38 8 -6 14 -22 14 -35 0 -20 5 -24 31 -24 l31 0 -41 46 c-43
49 -71 121 -71 183 0 20 -7 74 -15 120 -14 79 -13 87 3 115 28 48 59 45 125
-8 30 -25 57 -42 59 -37 2 6 56 -17 120 -49 108 -55 118 -58 133 -43 43 43
506 -33 554 -91 11 -13 2 -68 -10 -61 -10 7 -34 -35 -30 -54 1 -8 -2 -10 -10
-6 -7 5 -10 3 -7 -6 3 -8 11 -13 17 -12 13 4 13 5 2 -35 -10 -35 -1 -42 20
-15 10 11 10 14 2 9 -16 -9 -17 -16 15 84 30 95 29 94 124 69 37 -9 37 -11 36
-54 -2 -48 -14 -49 -20 -2 -5 31 -23 47 -53 46 -17 -1 -16 -2 4 -8 18 -5 28
-19 39 -51 7 -25 16 -52 19 -60 3 -8 7 -29 9 -47 1 -18 8 -41 13 -52 6 -11 11
-35 12 -53 0 -30 1 -31 10 -10 6 15 5 30 -2 43 -5 11 -7 24 -4 29 3 5 2 11 -2
13 -5 3 -8 49 -8 104 l0 98 80 3 c78 3 207 -18 334 -53 58 -16 84 -39 71 -65
-5 -8 -15 -43 -23 -78 -13 -59 -13 -62 4 -57 12 4 22 -1 29 -15 6 -11 16 -20
23 -19 26 3 37 -2 37 -16 0 -8 -4 -15 -10 -15 -5 0 -10 8 -10 17 0 15 -1 15
-13 -1 -12 -16 -14 -16 -40 8 -34 32 -35 32 -29 1 3 -16 10 -24 20 -23 8 2 17
-3 19 -9 3 -7 -2 -13 -11 -13 -20 0 -21 -20 -1 -21 8 -1 21 -2 27 -3 17 -1 23
-36 6 -36 -7 0 -23 7 -34 15 -20 14 -21 13 -19 -23 4 -60 5 -63 15 -57 6 3 10
-1 10 -9 0 -9 5 -16 10 -16 6 0 15 -11 22 -25 6 -13 15 -22 19 -19 5 3 9 -4 9
-15 0 -12 4 -21 10 -21 5 0 7 7 3 16 -5 13 -2 15 13 10 23 -7 54 10 39 22 -5
4 -16 17 -23 30 -10 19 -10 22 5 22 9 0 13 3 9 8 -9 9 -29 10 -36 1 -9 -11
-70 -19 -70 -9 0 6 5 10 11 10 8 0 8 5 -1 15 -10 13 -9 15 9 15 11 0 21 5 21
12 0 6 3 8 6 5 4 -4 2 -13 -4 -20 -12 -14 -7 -27 10 -27 5 0 6 4 3 10 -3 5 -2
17 3 26 8 15 10 15 15 0 4 -9 13 -16 22 -16 20 0 19 10 -2 27 -33 26 28 3 64
-24 33 -25 59 -23 49 4 -4 9 -2 21 4 28 8 9 8 15 0 20 -16 10 -12 44 10 75 14
20 19 37 14 54 -9 39 13 32 27 -8 12 -33 36 -42 51 -21 11 15 10 22 -6 28 -10
4 -13 1 -9 -9 3 -10 0 -12 -10 -8 -23 8 -28 31 -9 39 34 14 93 17 107 5 11 -9
15 -9 15 -1 0 6 4 11 9 11 5 0 9 -14 9 -32 -1 -23 6 -37 26 -53 l27 -21 -26
-14 c-27 -15 -31 -25 -13 -36 7 -4 8 -3 4 4 -4 7 -3 12 3 12 5 0 12 -6 15 -12
3 -7 3 -2 0 11 -5 21 -3 23 15 18 12 -3 19 -1 16 3 -3 5 -1 11 5 15 6 3 13 -1
16 -9 3 -9 10 -16 15 -16 4 0 6 7 3 15 -4 10 0 15 15 15 12 0 21 6 21 15 0 8
5 15 10 15 6 0 10 -13 10 -30 0 -23 -4 -30 -20 -30 -13 0 -18 -5 -14 -15 10
-24 44 -18 45 8 3 42 17 -78 17 -138 l-1 -60 -8 62 c-4 34 -12 70 -17 80 -12
21 -42 26 -42 6 0 -9 6 -13 15 -10 8 4 17 2 20 -3 4 -6 -3 -10 -14 -10 -11 0
-23 -4 -26 -10 -3 -5 -1 -10 4 -10 6 0 11 -7 11 -15 0 -9 -9 -15 -21 -15 -18
0 -20 4 -15 25 5 18 3 24 -6 23 -21 -5 -27 -20 -15 -35 42 -50 67 -65 67 -39
0 8 7 16 15 20 9 3 15 0 15 -9 0 -8 -5 -15 -11 -15 -5 0 -2 -13 7 -29 10 -17
21 -28 26 -25 4 3 8 39 8 81 0 89 6 93 13 8 5 -64 -17 -132 -33 -105 -8 13
-16 9 -58 -31 -9 -9 -26 -19 -37 -22 -16 -4 -14 -5 7 -6 15 0 33 7 40 17 12
16 48 29 48 17 0 -9 -33 -41 -54 -52 -16 -9 -14 -10 11 -9 20 1 29 5 26 14 -3
6 0 12 6 12 6 0 17 13 26 30 17 34 40 41 32 10 -3 -11 0 -20 5 -20 7 0 8 24 4
68 -3 37 -9 127 -12 200 l-7 132 41 0 c46 0 72 8 72 22 0 5 -16 6 -37 3 -21
-4 -101 -7 -178 -6 -77 0 -169 -3 -205 -8 -36 -5 -69 -5 -75 -1 -5 4 -19 4
-30 -1 -11 -4 -71 -8 -133 -8 -102 -1 -113 1 -110 16 4 19 -4 18 216 22 86 2
132 6 132 13 0 7 -23 9 -70 4 -45 -4 -70 -2 -70 4 0 5 -5 10 -11 10 -5 0 -8
-4 -5 -9 4 -6 -30 -9 -80 -8 -77 2 -88 4 -94 22 -7 20 -4 21 69 22 74 0 141
10 151 20 3 3 -43 3 -102 -1 -105 -6 -107 -6 -110 15 -2 18 -17 27 -78 46
-143 44 -213 55 -360 59 -80 2 -156 6 -170 10 -14 4 -29 8 -35 9 -5 1 -30 11
-55 22 -125 59 -470 115 -519 84 -10 -6 -19 -5 -25 3 -6 7 -40 23 -76 36 -36
13 -76 29 -89 37 -12 8 -32 13 -42 10 -12 -3 -23 2 -30 15 -8 14 -14 16 -23 9
-9 -8 -22 -2 -47 19 -19 16 -39 29 -46 30 -7 0 -10 7 -7 15 5 13 3 13 -22 0
-16 -8 -35 -15 -41 -15 -7 0 -13 -4 -13 -10 0 -5 -3 -10 -7 -10 -5 0 -9 30 -9
67 -2 99 -6 137 -14 148 -7 8 -20 104 -45 327 -2 20 -7 47 -10 60 -3 13 -8 46
-10 74 -2 27 -4 55 -4 62 -1 6 -7 12 -14 12 -10 0 -8 -35 10 -172z m89 -668
c8 -61 8 -87 0 -92 -18 -13 -24 -9 -35 23 -16 46 -14 54 9 28 l19 -24 1 23 c0
16 -7 26 -20 29 -15 4 -20 14 -20 38 0 19 -3 41 -6 50 -5 13 -2 16 17 13 22
-3 25 -10 35 -88z m7 -162 c6 -42 -9 -52 -19 -13 -6 23 2 63 10 54 2 -2 6 -21
9 -41z m1177 -28 c0 -5 -7 -7 -15 -4 -8 4 -15 8 -15 10 0 2 7 4 15 4 8 0 15
-4 15 -10z m-189 -81 c-9 -22 -10 -22 -10 -3 -1 11 2 24 6 27 12 12 14 0 4
-24z m-981 7 c0 -8 3 -23 6 -33 3 -10 -2 -7 -10 7 -18 30 -20 40 -6 40 6 0 10
-6 10 -14z m2210 -157 c0 -6 5 -7 11 -3 6 3 15 0 20 -7 7 -12 9 -11 9 1 0 9 9
16 21 17 13 1 19 -3 17 -13 -2 -8 -7 -14 -12 -14 -5 1 -13 -6 -18 -15 -6 -10
-16 -14 -29 -10 -16 5 -20 3 -17 -12 2 -13 -3 -18 -21 -18 -13 0 -26 6 -28 13
-3 6 2 12 11 12 8 0 18 5 22 11 5 9 -1 10 -20 5 -18 -4 -26 -2 -26 7 0 8 -7
14 -15 14 -22 0 -18 -30 5 -45 12 -7 18 -17 15 -23 -10 -14 -55 32 -55 57 0
11 2 23 4 25 9 9 106 7 106 -2z m-395 -27 c3 -9 1 -18 -5 -20 -8 -3 -7 -8 1
-18 9 -11 9 -14 -1 -14 -9 0 -9 -4 1 -17 9 -11 10 -14 2 -9 -7 4 -21 2 -31 -3
-21 -11 -42 2 -42 26 0 11 5 11 21 2 17 -8 20 -8 14 1 -4 7 -1 16 6 21 9 7 5
8 -12 3 -15 -3 -30 -1 -33 5 -4 6 -15 11 -25 11 -10 0 -24 7 -31 15 -10 12
-10 15 3 15 9 0 19 -5 22 -10 4 -6 10 -8 15 -5 5 3 20 1 32 -6 22 -12 22 -11
6 8 -17 18 -16 19 17 15 19 -2 36 -11 40 -20z m75 -9 c0 -14 -10 -34 -21 -44
-12 -10 -19 -25 -16 -33 3 -8 2 -16 -2 -18 -5 -2 -12 -14 -16 -28 -7 -24 -6
-24 7 -6 10 13 17 15 22 8 4 -7 3 -12 -3 -12 -7 0 -7 -8 -1 -25 12 -31 3 -32
-27 -3 -22 21 -31 48 -15 48 4 0 8 17 8 38 0 25 5 36 13 34 9 -2 11 3 8 13 -4
8 -1 15 6 16 7 0 2 4 -10 9 -29 12 -31 34 -2 25 14 -5 19 -3 15 3 -4 6 2 8 14
5 13 -4 20 -14 20 -30z m399 -75 l-2 -63 -7 50 c-6 46 -4 75 6 75 2 0 3 -28 3
-62z m-540 -12 c12 -11 21 -15 21 -10 0 5 9 10 20 10 11 0 20 -6 20 -14 0 -7
-5 -10 -12 -6 -7 5 -9 2 -6 -8 5 -11 -1 -15 -20 -15 -15 1 -33 -1 -40 -4 -8
-2 -18 6 -23 19 -6 17 -5 22 6 22 8 0 15 -7 15 -15 0 -8 4 -15 9 -15 21 0 2
35 -20 38 -13 2 -28 8 -34 13 -19 19 43 4 64 -15z m-79 -56 c0 -5 -4 -10 -10
-10 -5 0 -7 -8 -3 -17 4 -14 3 -15 -6 -7 -6 6 -9 18 -5 27 7 18 24 23 24 7z
m580 -50 c0 -5 -4 -10 -10 -10 -5 0 -10 5 -10 10 0 6 5 10 10 10 6 0 10 -4 10
-10z m-517 -39 c15 -8 27 -20 27 -28 0 -18 -27 -4 -55 28 -21 23 -19 23 28 0z"/>
<path d="M736 2355 c4 -8 10 -12 15 -9 14 8 10 24 -6 24 -9 0 -12 -6 -9 -15z"/>
<path d="M786 2348 c-17 -24 -22 -73 -6 -63 5 3 6 13 3 23 -6 15 -5 15 10 4 9
-8 15 -17 14 -20 -1 -4 1 -8 6 -9 18 -7 19 -2 3 16 -11 12 -14 21 -7 26 14 8
15 45 2 45 -6 0 -17 -10 -25 -22z"/>
<path d="M840 2362 c0 -12 19 -26 26 -19 2 2 -2 10 -11 17 -9 8 -15 8 -15 2z"/>
<path d="M880 2364 c0 -5 7 -19 15 -30 8 -10 15 -14 15 -8 0 5 -7 19 -15 30
-8 10 -15 14 -15 8z"/>
<path d="M921 2354 c0 -11 3 -14 6 -6 3 7 2 16 -1 19 -3 4 -6 -2 -5 -13z"/>
<path d="M986 2361 c-3 -5 1 -11 9 -15 15 -6 29 7 18 18 -9 9 -21 8 -27 -3z"/>
<path d="M1036 2353 c-6 -14 -5 -15 5 -6 7 7 10 15 7 18 -3 3 -9 -2 -12 -12z"/>
<path d="M1130 2359 c0 -5 -4 -7 -10 -4 -5 3 -10 1 -10 -5 0 -7 8 -9 23 -5 33
11 45 25 19 25 -12 0 -22 -5 -22 -11z"/>
<path d="M1213 2359 c-18 -5 -33 -14 -33 -20 0 -6 7 -6 19 1 28 15 64 12 87
-6 18 -15 18 -15 -5 -10 -17 3 -21 2 -13 -6 6 -6 17 -8 26 -5 21 8 9 44 -17
51 -26 7 -23 7 -64 -5z"/>
<path d="M1347 2363 c-4 -3 -7 -11 -7 -17 0 -6 5 -5 12 2 6 6 9 14 7 17 -3 3
-9 2 -12 -2z"/>
<path d="M1610 2350 c0 -11 2 -20 4 -20 2 0 6 9 9 20 3 11 1 20 -4 20 -5 0 -9
-9 -9 -20z"/>
<path d="M1651 2354 c0 -11 3 -14 6 -6 3 7 2 16 -1 19 -3 4 -6 -2 -5 -13z"/>
<path d="M1800 2354 c0 -8 5 -12 10 -9 6 4 8 11 5 16 -9 14 -15 11 -15 -7z"/>
<path d="M1985 2360 c3 -5 8 -10 11 -10 2 0 4 5 4 10 0 6 -5 10 -11 10 -5 0
-7 -4 -4 -10z"/>
<path d="M2074 2354 c-3 -10 -10 -29 -15 -41 -5 -14 -5 -23 1 -23 10 0 33 71
25 78 -3 3 -7 -4 -11 -14z"/>
<path d="M2100 2351 c0 -11 -3 -28 -7 -38 -3 -10 -3 -15 1 -12 12 11 25 69 15
69 -5 0 -9 -9 -9 -19z"/>
<path d="M2166 2323 c-13 -104 -56 -183 -98 -183 -25 0 -93 -29 -85 -36 3 -4
25 1 48 10 23 9 43 15 45 13 8 -8 -32 -36 -66 -46 -34 -10 -34 -10 -5 -9 21 2
46 17 83 53 56 53 81 97 85 152 1 18 5 33 10 33 11 0 9 -49 -4 -95 -7 -22 -12
-47 -14 -55 -3 -30 -27 -75 -32 -62 -4 10 -11 8 -28 -8 -12 -11 -28 -20 -35
-18 -7 2 -14 -2 -17 -9 -2 -7 4 -11 16 -10 12 1 21 5 21 9 0 4 5 8 11 8 5 0 7
-4 4 -10 -3 -5 0 -7 9 -4 22 9 67 78 77 121 12 53 10 121 -5 163 l-13 35 -7
-52z m-36 -237 c0 -3 -4 -8 -10 -11 -5 -3 -10 -1 -10 4 0 6 5 11 10 11 6 0 10
-2 10 -4z"/>
<path d="M2215 2300 c-1 -69 11 -77 15 -10 3 54 1 80 -7 80 -5 0 -8 -32 -8
-70z"/>
<path d="M2278 2363 c12 -2 30 -2 40 0 9 3 -1 5 -23 4 -22 0 -30 -2 -17 -4z"/>
<path d="M2374 2355 c-5 -12 -16 -15 -71 -15 -30 -1 -32 -3 -21 -19 9 -15 17
-17 36 -10 13 5 28 6 34 3 7 -4 8 -2 4 4 -4 7 -2 12 3 12 6 0 11 -4 11 -10 0
-5 9 -1 20 10 23 23 39 26 45 8 3 -12 16 -191 17 -228 0 -8 4 -25 10 -37 10
-20 18 -23 67 -21 l56 2 -50 3 c-41 3 -52 8 -61 28 -9 19 -9 27 2 36 8 6 14
22 14 35 0 15 6 24 15 24 8 0 15 -6 15 -13 0 -11 39 -14 193 -16 105 -1 201
-4 213 -7 17 -4 24 3 40 43 12 30 20 71 19 108 l0 60 -57 0 c-31 0 -59 3 -63
7 -4 4 -14 1 -22 -7 -19 -20 -143 -21 -143 -2 0 16 -26 15 -58 -2 -20 -11 -26
-10 -38 6 -11 15 -13 15 -14 3 0 -12 -9 -15 -37 -12 -21 2 -42 8 -48 12 -5 4
-19 4 -29 0 -11 -3 -37 -3 -59 0 -27 5 -40 4 -43 -5z m219 -28 c31 1 65 2 75
2 9 0 45 -2 80 -5 34 -3 75 -2 90 3 41 14 138 1 133 -17 -2 -8 -5 -29 -6 -47
-3 -41 -24 -93 -39 -94 -28 -3 -49 4 -67 22 -24 24 -34 24 -52 -1 -12 -18 -24
-20 -118 -18 -57 0 -118 5 -136 10 -42 11 -68 37 -54 51 27 27 2 74 -36 68 -7
-1 -13 8 -13 20 0 20 3 21 43 13 23 -4 68 -8 100 -7z m-108 -84 c-9 -61 -25
-80 -25 -29 0 26 4 35 12 30 8 -5 9 -2 5 10 -4 10 -5 22 -1 27 12 20 16 6 9
-38z m375 -63 c0 -5 -9 -10 -20 -10 -11 0 -20 5 -20 10 0 6 9 10 20 10 11 0
20 -4 20 -10z"/>
<path d="M951 2337 c0 -10 7 -21 17 -24 9 -4 22 -14 29 -22 9 -13 10 -11 6 11
-4 19 -10 24 -23 21 -12 -3 -20 2 -23 14 -4 17 -5 17 -6 0z"/>
<path d="M1316 2338 c2 -7 21 -21 42 -31 l37 -18 -35 30 c-37 33 -52 39 -44
19z"/>
<path d="M1020 2310 c0 -11 2 -20 5 -20 3 0 15 9 27 20 l22 20 -27 0 c-20 0
-27 -5 -27 -20z"/>
<path d="M1085 2320 c-3 -5 -2 -10 4 -10 5 0 13 5 16 10 3 6 2 10 -4 10 -5 0
-13 -4 -16 -10z"/>
<path d="M1635 2320 c-3 -5 -1 -10 4 -10 6 0 11 5 11 10 0 6 -2 10 -4 10 -3 0
-8 -4 -11 -10z"/>
<path d="M690 2311 c0 -5 5 -13 10 -16 6 -3 10 -2 10 4 0 5 -4 13 -10 16 -5 3
-10 2 -10 -4z"/>
<path d="M729 2315 c-1 -5 0 -18 1 -29 1 -12 -2 -16 -11 -11 -8 5 -10 4 -5 -4
4 -6 11 -9 16 -6 9 6 23 -12 27 -34 2 -18 43 -59 43 -44 0 6 -7 13 -15 17 -8
3 -15 13 -15 23 -1 21 -39 103 -41 88z"/>
<path d="M866 2311 c-3 -5 1 -12 10 -15 22 -8 25 -4 9 11 -8 7 -16 9 -19 4z"/>
<path d="M1106 2295 c-47 -27 -46 -40 2 -19 20 9 59 20 86 25 68 12 70 20 4
17 -35 -1 -70 -10 -92 -23z"/>
<path d="M1717 2293 c-4 -3 -7 -11 -7 -17 0 -6 5 -5 12 2 6 6 9 14 7 17 -3 3
-9 2 -12 -2z"/>
<path d="M1947 2293 c-4 -3 -7 -13 -7 -22 1 -13 3 -13 11 2 11 19 8 33 -4 20z"/>
<path d="M1156 2274 c-26 -9 -46 -18 -42 -21 3 -3 19 0 35 7 28 11 50 10 105
-7 12 -3 16 -1 12 6 -5 7 -1 9 8 5 9 -3 16 -1 16 4 0 19 -19 23 -42 11 -16 -9
-23 -9 -26 0 -4 13 -5 13 -66 -5z"/>
<path d="M1570 2280 c0 -6 7 -10 15 -10 8 0 15 2 15 4 0 2 -7 6 -15 10 -8 3
-15 1 -15 -4z"/>
<path d="M1630 2275 c-7 -9 -8 -15 -2 -15 5 0 12 7 16 15 3 8 4 15 2 15 -2 0
-9 -7 -16 -15z"/>
<path d="M1766 2273 c-6 -14 -5 -15 5 -6 7 7 10 15 7 18 -3 3 -9 -2 -12 -12z"/>
<path d="M1805 2280 c-17 -8 -16 -8 8 -7 15 1 27 5 27 9 0 10 -9 9 -35 -2z"/>
<path d="M2076 2274 c-4 -9 -4 -19 -1 -22 2 -3 7 3 11 12 4 9 4 19 1 22 -2 3
-7 -3 -11 -12z"/>
<path d="M1300 2270 c0 -5 6 -10 13 -10 8 0 7 -4 -3 -11 -12 -9 -12 -10 4 -5
11 4 23 2 26 -5 5 -8 10 -8 14 0 4 5 -7 17 -24 26 -17 9 -30 11 -30 5z"/>
<path d="M1372 2269 c2 -6 7 -10 11 -9 5 0 17 -9 28 -22 l20 -23 -16 27 c-16
26 -50 48 -43 27z"/>
<path d="M1670 2268 c0 -5 -6 -6 -12 -2 -10 5 -10 4 -2 -5 6 -7 23 -11 38 -9
l26 3 -25 12 c-15 6 -25 7 -25 1z"/>
<path d="M1866 2265 c4 -8 10 -12 15 -9 11 6 2 24 -11 24 -5 0 -7 -7 -4 -15z"/>
<path d="M210 2261 c0 -6 4 -13 10 -16 6 -3 7 1 4 9 -7 18 -14 21 -14 7z"/>
<path d="M1026 2254 c-9 -24 -7 -28 9 -14 17 14 20 30 6 30 -5 0 -12 -7 -15
-16z"/>
<path d="M2270 2261 c0 -7 9 -24 20 -38 12 -16 18 -35 15 -47 -5 -21 -5 -21 6
0 9 18 7 29 -15 60 -14 21 -26 33 -26 25z"/>
<path d="M699 2242 c12 -22 41 -48 41 -36 -1 11 -36 54 -44 54 -4 0 -2 -8 3
-18z"/>
<path d="M1890 2234 l-25 -24 27 12 c16 7 28 19 28 26 0 16 0 15 -30 -14z"/>
<path d="M1963 2245 c-7 -8 -9 -16 -4 -19 5 -3 12 1 15 10 8 22 4 25 -11 9z"/>
<path d="M2050 2251 c0 -7 -4 -10 -8 -7 -5 3 -18 -7 -29 -22 -35 -49 -37 -55
-10 -37 29 19 62 64 53 73 -3 3 -6 0 -6 -7z"/>
<path d="M965 2240 c-3 -5 -1 -10 4 -10 6 0 11 5 11 10 0 6 -2 10 -4 10 -3 0
-8 -4 -11 -10z"/>
<path d="M1753 2233 c16 -8 36 -12 45 -10 12 3 10 5 -6 6 -13 0 -21 4 -19 9 3
4 -7 8 -21 9 l-27 1 28 -15z"/>
<path d="M2235 2240 c-3 -5 -1 -10 4 -10 6 0 11 5 11 10 0 6 -2 10 -4 10 -3 0
-8 -4 -11 -10z"/>
<path d="M2310 2241 c0 -5 5 -13 10 -16 6 -3 10 -2 10 4 0 5 -4 13 -10 16 -5
3 -10 2 -10 -4z"/>
<path d="M636 2231 c-3 -5 1 -11 9 -14 9 -4 12 -1 8 9 -6 16 -10 17 -17 5z"/>
<path d="M1085 2230 c-8 -13 5 -13 25 0 13 8 13 10 -2 10 -9 0 -20 -4 -23 -10z"/>
<path d="M1142 2233 c-6 -3 -10 -9 -6 -14 7 -12 41 -12 48 0 7 10 -23 20 -42
14z"/>
<path d="M1250 2230 c8 -5 24 -9 35 -9 20 0 20 0 0 9 -11 5 -27 9 -35 9 -13 1
-13 0 0 -9z"/>
<path d="M1631 2232 c-23 -8 -10 -22 19 -22 17 0 56 -11 88 -24 67 -27 122
-39 122 -26 0 5 -12 11 -27 13 -28 4 -28 4 3 6 16 0 39 8 50 17 19 15 18 15
-2 5 -37 -18 -97 -14 -170 11 -40 13 -77 22 -83 20z"/>
<path d="M1200 2226 c0 -2 9 -6 20 -9 11 -3 18 -1 14 4 -5 9 -34 13 -34 5z"/>
<path d="M1560 2219 c0 -5 5 -7 10 -4 6 3 10 8 10 11 0 2 -4 4 -10 4 -5 0 -10
-5 -10 -11z"/>
<path d="M2220 2200 c-6 -12 -9 -24 -7 -27 3 -2 11 5 17 17 6 12 9 24 7 27 -3
2 -11 -5 -17 -17z"/>
<path d="M626 2195 c4 -8 11 -15 16 -15 6 0 5 6 -2 15 -7 8 -14 15 -16 15 -2
0 -1 -7 2 -15z"/>
<path d="M684 2195 c11 -8 25 -15 30 -15 6 0 2 7 -8 15 -11 8 -25 15 -30 15
-6 0 -2 -7 8 -15z"/>
<path d="M934 2188 l-19 -23 23 19 c12 11 22 21 22 23 0 8 -8 2 -26 -19z"/>
<path d="M1094 2200 c-23 -9 -42 -30 -27 -30 4 0 19 9 33 20 27 21 26 23 -6
10z"/>
<path d="M1926 2187 c-4 -18 -4 -18 15 -1 23 21 23 21 5 21 -8 0 -17 -9 -20
-20z"/>
<path d="M1020 2158 c-17 -22 -28 -43 -26 -46 9 -8 60 47 63 67 4 30 -3 26
-37 -21z"/>
<path d="M2361 2165 c1 -22 5 -53 9 -70 6 -25 8 -21 9 25 0 30 -4 62 -9 70 -7
11 -9 4 -9 -25z"/>
<path d="M235 2150 c0 -22 3 -40 8 -40 4 0 7 18 7 40 0 22 -3 40 -7 40 -5 0
-8 -18 -8 -40z"/>
<path d="M815 2180 c3 -5 8 -10 11 -10 2 0 4 5 4 10 0 6 -5 10 -11 10 -5 0 -7
-4 -4 -10z"/>
<path d="M1650 2179 c0 -6 -7 -9 -15 -6 -8 4 -16 3 -19 -1 -2 -4 6 -9 20 -10
15 -1 24 3 24 13 0 8 -2 15 -5 15 -3 0 -5 -5 -5 -11z"/>
<path d="M1690 2181 c0 -10 30 -24 37 -17 3 2 -5 9 -16 16 -12 6 -21 7 -21 1z"/>
<path d="M666 2154 c-7 -18 -8 -110 -2 -103 3 3 6 24 7 47 3 37 5 41 23 36 21
-7 21 -6 2 15 -23 25 -22 25 -30 5z"/>
<path d="M950 2159 c0 -5 5 -7 10 -4 6 3 10 8 10 11 0 2 -4 4 -10 4 -5 0 -10
-5 -10 -11z"/>
<path d="M2275 2160 c-3 -5 -1 -10 4 -10 6 0 11 5 11 10 0 6 -2 10 -4 10 -3 0
-8 -4 -11 -10z"/>
<path d="M2320 2151 c0 -10 5 -21 11 -23 17 -6 1 -68 -19 -76 -10 -3 -23 -14
-30 -24 -14 -20 -72 -54 -85 -50 -5 1 -6 -2 -3 -7 4 -5 22 -2 43 9 32 15 38
16 54 2 9 -8 15 -22 12 -31 -4 -14 -3 -14 6 -1 7 11 6 19 -5 32 -10 11 -13 24
-9 39 7 21 8 21 21 -10 8 -19 14 -46 14 -62 0 -24 -4 -29 -23 -29 -13 0 -27 3
-31 7 -12 12 -33 11 -33 -2 0 -7 8 -10 19 -7 10 2 18 -1 18 -7 0 -7 5 -9 12
-5 8 5 9 2 4 -11 -7 -18 -6 -18 14 0 12 11 20 13 20 6 0 -7 5 -9 10 -6 6 4 8
14 6 23 -8 26 10 50 25 35 10 -10 10 -18 -1 -38 -12 -23 -12 -28 0 -35 8 -6
20 -10 25 -10 6 0 3 5 -5 10 -12 7 -12 12 -2 22 6 6 12 20 12 30 0 20 14 21
365 22 l170 1 -2 -26 c-1 -15 6 -34 16 -43 20 -18 51 -12 51 10 0 11 -4 12
-19 5 -26 -15 -31 -5 -31 62 0 46 -3 57 -12 49 -7 -5 -23 -13 -36 -17 -21 -6
-23 -4 -20 21 2 22 10 30 36 36 17 5 32 12 32 17 0 5 11 12 25 15 14 4 25 13
25 21 0 19 -16 19 -24 0 -7 -19 -26 -20 -26 -1 0 8 -5 18 -11 22 -8 5 -10 -1
-5 -19 7 -28 -3 -35 -61 -39 -31 -2 -31 -3 -17 -30 18 -35 18 -48 -1 -48 -14
0 -20 12 -16 33 1 5 -8 11 -19 14 -11 3 -20 12 -20 19 0 9 -11 14 -32 13 l-33
-1 30 -8 30 -7 -34 -15 c-30 -14 -31 -16 -11 -21 13 -3 23 0 27 9 8 22 23 16
23 -10 0 -23 -2 -24 -77 -21 -81 3 -104 -2 -82 -16 8 -5 -52 -9 -143 -9 -150
0 -158 1 -158 19 0 11 -4 23 -10 26 -5 3 -10 13 -10 21 0 8 4 13 9 10 13 -9
24 48 16 84 -8 35 -25 50 -25 21z"/>
<path d="M176 2135 c-4 -14 -4 -30 -1 -35 3 -6 8 -34 10 -64 2 -30 6 -63 8
-73 3 -10 8 -39 12 -65 5 -40 3 -47 -10 -42 -8 4 -15 10 -15 16 0 8 -58 34
-70 31 -3 -1 -5 8 -6 20 -3 52 -17 143 -26 157 -5 10 -7 3 -3 -20 8 -56 16
-226 9 -212 -3 6 -11 9 -17 5 -7 -3 -9 -3 -5 1 3 4 2 21 -4 37 -8 23 -16 29
-32 27 -19 -3 -21 -10 -24 -72 -2 -43 1 -73 9 -80 9 -8 10 6 5 62 -9 93 18 99
30 7 10 -76 33 -115 73 -121 7 -2 18 -7 24 -13 6 -6 22 -11 37 -11 59 0 70 -9
68 -57 -2 -39 -5 -44 -23 -39 -11 2 -29 0 -40 -4 -17 -7 -14 -9 13 -9 40 -1
40 -11 -1 -55 -22 -23 -29 -37 -21 -40 7 -3 30 19 51 47 36 48 39 56 36 112
-1 33 -2 66 -3 73 0 8 -18 12 -57 12 -82 0 -100 7 -112 43 -11 31 -7 53 5 23
3 -9 13 -16 21 -16 12 0 12 2 -1 16 -19 19 -22 84 -3 84 29 -1 63 -31 87 -76
17 -33 32 -49 45 -49 11 0 25 -11 32 -25 13 -25 13 -25 13 -2 0 14 -9 26 -24
33 -20 9 -26 22 -31 63 -3 28 -13 91 -21 139 -8 48 -15 112 -15 142 -2 58 -13
72 -23 30z"/>
<path d="M1670 2151 c0 -6 10 -11 23 -11 13 0 34 -11 47 -25 13 -14 29 -25 37
-25 7 0 13 -4 13 -9 0 -5 16 -12 36 -15 19 -4 45 -17 56 -28 13 -13 23 -17 26
-10 4 12 33 5 43 -11 8 -12 31 1 24 14 -3 5 -31 16 -62 25 -31 9 -83 34 -116
55 -33 22 -68 39 -78 39 -9 0 -24 3 -33 6 -9 3 -16 1 -16 -5z"/>
<path d="M1990 2150 c0 -6 -6 -10 -12 -8 -7 1 -30 -4 -51 -11 -35 -12 -55 -11
-104 5 -10 3 -4 -3 12 -15 23 -16 38 -19 65 -14 19 4 42 6 51 5 9 0 27 10 40
24 12 13 17 24 11 24 -7 0 -12 -5 -12 -10z"/>
<path d="M924 2131 c0 -11 4 -17 8 -15 10 7 10 34 0 34 -4 0 -8 -9 -8 -19z"/>
<path d="M2130 2140 c-9 -6 -10 -10 -3 -10 6 0 15 5 18 10 8 12 4 12 -15 0z"/>
<path d="M1038 2118 c-13 -13 -17 -18 -8 -12 8 6 24 16 35 22 11 6 15 12 8 12
-7 0 -22 -10 -35 -22z"/>
<path d="M2248 2121 c-8 -12 -18 -18 -21 -14 -4 3 -7 2 -7 -4 0 -6 9 -13 21
-16 12 -3 18 -3 15 0 -3 3 -1 14 5 25 15 27 4 34 -13 9z"/>
<path d="M728 2118 c5 -5 16 -8 23 -6 8 3 3 7 -10 11 -17 4 -21 3 -13 -5z"/>
<path d="M781 2121 c-8 -5 -9 -11 -3 -15 5 -3 12 1 16 9 6 17 6 18 -13 6z"/>
<path d="M950 2119 c0 -5 5 -7 10 -4 6 3 10 8 10 11 0 2 -4 4 -10 4 -5 0 -10
-5 -10 -11z"/>
<path d="M2317 2113 c-4 -3 -7 -13 -7 -22 1 -13 3 -13 11 2 11 19 8 33 -4 20z"/>
<path d="M2530 2100 c-18 -12 -2 -12 25 0 13 6 15 9 5 9 -8 0 -22 -4 -30 -9z"/>
<path d="M918 2093 c7 -3 16 -2 19 1 4 3 -2 6 -13 5 -11 0 -14 -3 -6 -6z"/>
<path d="M966 2084 c-5 -14 -4 -15 9 -4 17 14 19 20 6 20 -5 0 -12 -7 -15 -16z"/>
<path d="M251 2080 c1 -8 5 -26 9 -40 l8 -25 1 25 c0 14 -4 32 -9 40 -9 13
-10 13 -9 0z"/>
<path d="M1938 2083 c6 -2 18 -2 25 0 6 3 1 5 -13 5 -14 0 -19 -2 -12 -5z"/>
<path d="M905 2070 c-3 -5 -1 -10 4 -10 6 0 11 5 11 10 0 6 -2 10 -4 10 -3 0
-8 -4 -11 -10z"/>
<path d="M21 2054 c0 -11 3 -14 6 -6 3 7 2 16 -1 19 -3 4 -6 -2 -5 -13z"/>
<path d="M2628 2063 c7 -3 16 -2 19 1 4 3 -2 6 -13 5 -11 0 -14 -3 -6 -6z"/>
<path d="M971 2051 c-7 -5 -11 -15 -9 -22 3 -10 8 -7 17 9 13 24 12 26 -8 13z"/>
<path d="M2000 2050 c-24 -8 -23 -8 8 -9 17 -1 32 4 32 9 0 11 -5 11 -40 0z"/>
<path d="M2350 2045 c0 -8 7 -15 15 -15 8 0 15 -9 15 -20 0 -15 7 -20 25 -20
16 0 25 6 25 15 0 12 14 15 70 15 87 0 94 -19 8 -22 l-63 -1 60 -6 c33 -3 63
-2 67 3 4 6 13 4 22 -3 18 -15 18 -15 21 17 2 22 0 22 -106 22 -92 0 -108 -2
-103 -15 4 -8 2 -15 -4 -15 -6 0 -13 14 -17 30 -7 30 -35 43 -35 15z"/>
<path d="M2960 2050 c0 -5 7 -7 15 -4 8 4 15 8 15 10 0 2 -7 4 -15 4 -8 0 -15
-4 -15 -10z"/>
<path d="M655 2029 c-4 -6 -5 -12 -2 -15 2 -3 7 2 10 11 7 17 1 20 -8 4z"/>
<path d="M2218 2027 c-21 -6 -38 -15 -38 -19 0 -11 33 -2 70 18 29 15 20 16
-32 1z"/>
<path d="M2640 2028 c0 -4 16 -8 35 -8 19 0 35 3 35 8 0 4 -16 7 -35 8 -19 0
-35 -3 -35 -8z"/>
<path d="M2000 2026 c0 -10 83 -57 93 -52 7 2 5 5 -4 5 -9 1 -23 9 -30 18 -13
15 -12 16 9 11 13 -4 20 -2 16 4 -3 5 -15 8 -25 5 -10 -3 -22 -1 -25 4 -5 9
-34 13 -34 5z"/>
<path d="M2970 2020 c0 -5 5 -10 11 -10 5 0 7 5 4 10 -3 6 -8 10 -11 10 -2 0
-4 -4 -4 -10z"/>
<path d="M789 2003 c-12 -16 -12 -17 1 -7 8 6 22 14 30 17 13 5 12 6 -1 6 -9
1 -23 -7 -30 -16z"/>
<path d="M272 1990 c0 -14 2 -19 5 -12 2 6 2 18 0 25 -3 6 -5 1 -5 -13z"/>
<path d="M1923 1985 c0 -8 6 -15 14 -15 7 0 13 7 13 15 0 8 -6 15 -13 15 -8 0
-14 -7 -14 -15z"/>
<path d="M2255 1970 c-3 -5 -1 -10 4 -10 6 0 11 5 11 10 0 6 -2 10 -4 10 -3 0
-8 -4 -11 -10z"/>
<path d="M2147 1959 c7 -7 15 -10 18 -7 3 3 -2 9 -12 12 -14 6 -15 5 -6 -5z"/>
<path d="M1287 1954 c-11 -11 3 -24 18 -18 8 4 12 10 9 15 -6 11 -18 12 -27 3z"/>
<path d="M1830 1940 c0 -5 5 -10 11 -10 5 0 7 5 4 10 -3 6 -8 10 -11 10 -2 0
-4 -4 -4 -10z"/>
<path d="M2975 1940 c-3 -5 -1 -10 4 -10 6 0 11 5 11 10 0 6 -2 10 -4 10 -3 0
-8 -4 -11 -10z"/>
<path d="M823 1920 c-11 -16 -10 -18 1 -14 15 6 30 34 18 34 -4 0 -13 -9 -19
-20z"/>
<path d="M735 1910 c-3 -6 1 -7 9 -4 18 7 21 14 7 14 -6 0 -13 -4 -16 -10z"/>
<path d="M852 1879 c-19 -30 -8 -34 12 -4 9 14 13 25 9 25 -5 0 -14 -9 -21
-21z"/>
<path d="M2233 1886 c14 -11 15 -15 5 -20 -7 -3 -2 -3 12 0 43 11 42 17 -5 28
-27 6 -28 5 -12 -8z"/>
<path d="M1590 1875 c0 -8 4 -15 10 -15 5 0 7 7 4 15 -4 8 -8 15 -10 15 -2 0
-4 -7 -4 -15z"/>
<path d="M1840 1880 c0 -5 5 -10 11 -10 5 0 7 5 4 10 -3 6 -8 10 -11 10 -2 0
-4 -4 -4 -10z"/>
<path d="M2030 1877 c0 -9 4 -18 9 -21 5 -4 8 1 7 9 -3 21 -16 31 -16 12z"/>
<path d="M2339 1873 c-1 -4 -1 -11 0 -15 0 -5 -8 -17 -20 -29 -11 -11 -18 -24
-14 -27 3 -4 9 -1 13 6 6 8 91 12 327 13 176 0 329 5 340 9 27 11 11 13 -95
10 -47 -2 -110 -2 -140 -2 -30 1 -130 2 -223 3 -142 2 -167 4 -165 17 2 8 -3
17 -9 19 -7 3 -14 1 -14 -4z"/>
<path d="M2150 1860 c0 -5 5 -10 11 -10 5 0 7 5 4 10 -3 6 -8 10 -11 10 -2 0
-4 -4 -4 -10z"/>
<path d="M285 1849 c-4 -6 -5 -12 -2 -15 2 -3 7 2 10 11 7 17 1 20 -8 4z"/>
<path d="M970 1853 c0 -6 8 -17 18 -24 16 -13 16 -13 2 6 -8 11 -16 22 -17 24
-2 2 -3 0 -3 -6z"/>
<path d="M1810 1850 c0 -5 5 -10 10 -10 6 0 10 5 10 10 0 6 -4 10 -10 10 -5 0
-10 -4 -10 -10z"/>
<path d="M1055 1830 c-3 -5 -1 -10 4 -10 6 0 11 5 11 10 0 6 -2 10 -4 10 -3 0
-8 -4 -11 -10z"/>
<path d="M2241 1837 c-1 -5 3 -17 9 -27 7 -13 6 -19 -6 -24 -9 -4 -18 3 -24
19 -19 51 -17 23 3 -39 18 -54 24 -63 36 -53 11 9 10 4 -3 -20 -10 -20 -12
-33 -6 -33 11 0 8 -46 -10 -115 -12 -50 -12 -64 -1 -46 7 11 10 9 16 -8 8 -27
-4 -123 -15 -116 -4 3 -11 -2 -14 -11 -4 -12 -1 -14 14 -9 17 5 20 2 20 -20 0
-17 -4 -25 -12 -22 -7 2 -12 10 -10 17 1 6 -2 10 -8 8 -17 -5 -13 -14 22 -48
26 -26 30 -28 25 -10 -3 11 -2 34 3 50 6 19 5 29 -2 27 -6 -1 -12 8 -14 21 -2
12 1 22 6 22 6 0 10 7 10 15 0 15 36 74 54 86 10 8 46 0 46 -10 0 -4 -6 -13
-12 -20 -13 -14 -10 -14 39 6 12 5 9 -3 -9 -28 -33 -42 -24 -68 22 -63 28 3
30 1 30 -28 0 -17 3 -28 7 -25 3 4 12 2 20 -4 10 -9 13 -8 13 5 0 9 -4 16 -9
16 -5 0 -19 25 -30 55 -24 63 -25 69 -12 60 6 -3 13 0 18 8 4 7 36 22 70 32
57 18 63 23 78 60 8 22 15 46 15 53 0 7 5 12 10 12 6 0 10 14 10 30 0 23 -4
30 -20 30 -17 0 -19 -5 -14 -44 5 -33 3 -49 -9 -60 -8 -8 -17 -12 -21 -9 -3 4
-6 -4 -6 -17 0 -17 -3 -21 -11 -13 -8 8 -7 17 3 33 10 18 10 24 1 27 -7 3 -13
12 -13 21 0 13 5 11 20 -8 16 -20 20 -22 20 -7 0 9 -4 17 -9 17 -5 0 -12 11
-15 25 -4 16 -13 25 -27 25 -19 0 -20 -4 -13 -80 l7 -80 -41 0 c-37 0 -40 2
-44 30 -6 37 5 39 21 4 6 -15 14 -24 18 -20 3 3 -6 23 -20 43 -20 29 -28 56
-33 114 l-6 76 138 6 c76 3 141 4 145 1 11 -7 32 -324 27 -418 -3 -50 -3 -76
-1 -58 3 24 9 32 24 32 15 0 19 7 19 39 0 22 -5 41 -10 43 -6 2 -12 56 -15
123 -7 169 -10 206 -23 237 l-11 26 -123 -4 c-68 -3 -138 -7 -155 -10 -38 -6
-38 -1 -19 -156 l12 -108 -54 0 c-39 0 -52 3 -47 13 4 6 -1 3 -10 -8 -9 -11
-18 -30 -21 -42 -5 -18 -34 -42 -34 -28 0 10 24 55 29 55 4 0 8 14 9 30 3 39
-5 38 -22 -2 -12 -29 -15 -31 -21 -14 -5 10 -3 33 4 52 7 18 13 56 13 84 1 47
17 84 19 43 0 -10 3 -13 5 -7 3 6 -2 31 -10 54 -11 31 -12 49 -5 63 6 10 8 21
5 25 -3 3 -6 0 -6 -6 0 -16 -37 -15 -43 1 -3 6 -6 8 -6 4z m43 -73 c9 -24 7
-31 -5 -14 -8 11 -12 12 -16 3 -2 -7 -9 -13 -14 -13 -6 0 -5 8 1 20 13 24 26
26 34 4z m146 -345 c0 -5 -4 -9 -10 -9 -5 0 -10 7 -10 16 0 8 5 12 10 9 6 -3
10 -10 10 -16z"/>
<path d="M1570 1776 c0 -2 9 -6 20 -9 11 -3 20 -1 20 4 0 5 -9 9 -20 9 -11 0
-20 -2 -20 -4z"/>
<path d="M2190 1771 c0 -6 4 -13 10 -16 6 -3 7 1 4 9 -7 18 -14 21 -14 7z"/>
<path d="M1630 1765 c0 -7 30 -13 34 -7 3 4 -4 9 -15 9 -10 1 -19 0 -19 -2z"/>
<path d="M4 1739 c-4 -7 10 -13 19 -7 1 1 13 -5 27 -12 22 -12 24 -12 12 2
-16 19 -50 29 -58 17z"/>
<path d="M2201 1724 c0 -11 3 -14 6 -6 3 7 2 16 -1 19 -3 4 -6 -2 -5 -13z"/>
<path d="M2161 1714 c0 -11 3 -14 6 -6 3 7 2 16 -1 19 -3 4 -6 -2 -5 -13z"/>
<path d="M1400 1710 c-8 -5 -11 -12 -7 -16 4 -4 13 -2 19 4 15 15 7 24 -12 12z"/>
<path d="M1790 1701 c0 -10 26 -9 36 2 4 4 -2 7 -14 7 -12 0 -22 -4 -22 -9z"/>
<path d="M1025 1691 c-3 -5 -1 -12 5 -16 5 -3 10 1 10 9 0 18 -6 21 -15 7z"/>
<path d="M2576 1681 c-4 -7 -5 -15 -2 -18 9 -9 19 4 14 18 -4 11 -6 11 -12 0z"/>
<path d="M886 1653 c-6 -14 -5 -15 5 -6 7 7 10 15 7 18 -3 3 -9 -2 -12 -12z"/>
<path d="M1370 1660 c0 -5 5 -10 10 -10 6 0 10 5 10 10 0 6 -4 10 -10 10 -5 0
-10 -4 -10 -10z"/>
<path d="M1615 1654 c36 -28 61 -36 30 -10 -16 14 -34 26 -40 26 -5 -1 -1 -8
10 -16z"/>
<path d="M1330 1649 c0 -5 5 -7 10 -4 6 3 10 8 10 11 0 2 -4 4 -10 4 -5 0 -10
-5 -10 -11z"/>
<path d="M1430 1645 c0 -8 5 -15 10 -15 6 0 10 7 10 15 0 8 -4 15 -10 15 -5 0
-10 -7 -10 -15z"/>
<path d="M2651 1623 c1 -15 -3 -39 -8 -53 -6 -14 -8 -31 -6 -37 3 -7 -3 -13
-14 -13 -17 -1 -17 -1 -1 -14 10 -7 16 -22 13 -35 -2 -12 0 -19 6 -16 5 4 9
25 9 48 0 32 8 54 35 91 35 50 39 81 5 36 -15 -20 -20 -21 -20 -8 0 9 -5 20
-10 23 -6 4 -10 -5 -9 -22z"/>
<path d="M1400 1610 c0 -5 5 -10 10 -10 6 0 10 5 10 10 0 6 -4 10 -10 10 -5 0
-10 -4 -10 -10z"/>
<path d="M1700 1612 c0 -5 7 -15 15 -22 8 -7 15 -8 15 -2 0 5 -7 15 -15 22 -8
7 -15 8 -15 2z"/>
<path d="M820 1601 c0 -5 5 -13 10 -16 6 -3 10 -2 10 4 0 5 -4 13 -10 16 -5 3
-10 2 -10 -4z"/>
<path d="M1080 1600 c0 -5 5 -10 10 -10 6 0 10 5 10 10 0 6 -4 10 -10 10 -5 0
-10 -4 -10 -10z"/>
<path d="M1806 1597 c3 -10 9 -15 12 -12 3 3 0 11 -7 18 -10 9 -11 8 -5 -6z"/>
<path d="M2203 1580 c3 -9 -4 -58 -14 -110 -23 -119 -24 -156 -3 -164 23 -9
28 -7 16 7 -11 13 -5 67 8 67 5 0 6 10 2 22 -3 13 -1 19 5 15 13 -8 15 51 3
92 -5 19 -5 31 1 31 14 0 11 14 -7 36 -10 12 -14 14 -11 4z m4 -137 c-3 -10
-5 -4 -5 12 0 17 2 24 5 18 2 -7 2 -21 0 -30z"/>
<path d="M600 1565 c-10 -12 -10 -29 0 -80 7 -36 14 -64 16 -62 2 2 7 30 10
62 5 42 4 56 -5 51 -6 -4 -11 -2 -11 4 0 7 8 9 20 5 25 -8 26 11 1 24 -14 8
-22 7 -31 -4z"/>
<path d="M1990 1561 c0 -6 5 -13 10 -16 6 -3 10 1 10 9 0 9 -4 16 -10 16 -5 0
-10 -4 -10 -9z"/>
<path d="M1115 1539 c-24 -9 -21 -11 27 -14 21 -1 35 1 33 5 -8 13 -39 17 -60
9z"/>
<path d="M1027 1514 c3 -8 11 -14 19 -14 21 0 17 17 -5 23 -14 3 -18 1 -14 -9z"/>
<path d="M678 1515 c-10 -10 3 -43 19 -49 11 -5 13 -1 8 17 -9 27 -19 39 -27
32z"/>
<path d="M2555 1491 c4 -13 2 -21 -5 -21 -6 0 -10 -6 -7 -12 2 -7 -10 -18 -27
-25 -28 -10 -29 -12 -7 -12 18 -1 22 -5 18 -21 -3 -11 -1 -20 4 -20 5 0 9 12
9 26 0 22 3 24 14 15 10 -8 16 -9 21 -1 3 5 1 10 -5 10 -7 0 -9 12 -5 34 5 22
3 36 -5 41 -9 5 -10 1 -5 -14z"/>
<path d="M802 1480 c0 -14 2 -19 5 -12 2 6 2 18 0 25 -3 6 -5 1 -5 -13z"/>
<path d="M2601 1484 c0 -11 3 -14 6 -6 3 7 2 16 -1 19 -3 4 -6 -2 -5 -13z"/>
<path d="M480 1471 c0 -11 -3 -27 -7 -37 -5 -13 -3 -16 10 -11 9 3 17 2 17 -3
0 -6 -12 -10 -27 -10 -39 0 -74 -11 -68 -21 10 -15 41 -269 34 -269 -11 0 -17
25 -29 135 -17 149 -14 142 -62 150 -61 9 -78 15 -78 26 0 5 7 9 15 9 8 0 15
7 15 15 0 11 -13 15 -54 15 -30 0 -61 3 -70 6 -11 4 -19 -2 -26 -20 -5 -14
-14 -26 -19 -26 -6 0 -8 -7 -4 -16 6 -16 47 -16 85 0 11 5 18 2 21 -11 4 -16
5 -16 6 0 1 21 10 21 47 2 16 -8 38 -15 49 -15 11 0 27 -5 35 -11 11 -7 0 -9
-38 -4 -35 3 -51 2 -47 -5 4 -6 11 -8 16 -5 13 9 17 -7 32 -125 l13 -105 29
-3 c35 -4 59 -22 29 -22 -10 0 -42 3 -70 6 l-51 6 -6 59 c-4 32 -9 76 -13 99
-6 33 -4 39 8 35 12 -5 14 0 11 19 -3 14 -11 26 -18 26 -7 0 -15 6 -18 13 -2
6 -7 10 -10 7 -5 -4 18 -220 26 -250 2 -9 -2 -10 -37 -10 -21 0 -24 6 -30 53
-4 28 -11 86 -17 129 l-11 76 -59 4 c-54 3 -72 -3 -50 -16 11 -7 11 -55 0 -62
-5 -3 -9 3 -10 13 0 14 -2 15 -6 3 -3 -8 -14 -25 -23 -37 -18 -24 -17 -99 2
-135 6 -14 5 -16 -7 -12 -8 4 -15 1 -15 -5 0 -6 18 -11 41 -11 35 0 40 2 34
18 -4 9 -10 41 -13 70 -4 50 -6 52 -22 37 -13 -11 -20 -13 -25 -5 -7 12 31 50
50 50 8 0 16 -29 22 -79 16 -122 10 -119 252 -117 153 1 201 4 201 14 0 7 -14
12 -38 12 l-37 0 -13 65 c-16 88 -15 102 8 108 14 4 20 13 19 34 -1 17 -3 21
-6 10 -2 -9 -9 -15 -14 -12 -5 4 -9 -1 -9 -10 0 -9 -4 -13 -10 -10 -5 3 -10
22 -10 41 0 19 5 34 10 34 6 0 10 -7 10 -16 0 -8 4 -13 9 -9 12 7 62 -16 56
-26 -3 -4 -1 -10 5 -14 16 -10 12 17 -7 37 -9 11 -11 18 -5 18 7 0 12 4 12 8
0 5 -14 6 -31 4 -22 -3 -30 -1 -25 7 4 6 18 11 32 11 28 0 30 14 8 58 -18 37
-24 40 -24 13z m-290 -40 c0 -10 -42 -23 -49 -15 -7 6 20 24 37 24 6 0 12 -4
12 -9z m-81 -92 c6 -18 11 -42 11 -55 0 -13 4 -25 8 -28 5 -3 5 16 1 42 -4 26
-8 53 -8 60 -1 15 25 16 35 0 5 -7 3 -8 -6 -3 -9 6 -11 0 -7 -21 3 -16 9 -60
12 -99 8 -86 13 -107 27 -99 6 4 9 1 6 -7 -2 -8 -16 -15 -30 -17 -23 -3 -26 1
-32 43 -4 25 -13 60 -21 78 -18 44 -30 137 -17 137 6 0 15 -14 21 -31z m273
-34 c20 -132 20 -155 0 -155 -10 0 -19 6 -20 13 -5 65 -12 126 -17 159 -6 35
-5 39 11 36 14 -2 21 -16 26 -53z m-329 -155 c3 -11 1 -20 -4 -20 -5 0 -9 9
-9 20 0 11 2 20 4 20 2 0 6 -9 9 -20z"/>
<path d="M132 1220 c0 -14 2 -19 5 -12 2 6 2 18 0 25 -3 6 -5 1 -5 -13z"/>
<path d="M830 1481 c0 -6 5 -13 10 -16 6 -3 10 1 10 9 0 9 -4 16 -10 16 -5 0
-10 -4 -10 -9z"/>
<path d="M2669 1468 c4 -12 18 -25 31 -30 20 -7 22 -6 16 14 -3 13 -6 26 -6
31 0 4 -11 7 -25 7 -21 0 -23 -3 -16 -22z"/>
<path d="M2912 1467 c-26 -27 -27 -40 -8 -56 10 -8 16 -9 21 -1 3 5 12 10 18
10 7 0 6 -4 -3 -10 -11 -6 -12 -12 -4 -20 17 -17 52 55 38 78 -17 26 -37 25
-62 -1z m48 -17 c0 -21 -8 -24 -34 -14 -20 8 -9 34 15 34 12 0 19 -7 19 -20z"/>
<path d="M1870 1470 c0 -5 5 -10 11 -10 5 0 7 5 4 10 -3 6 -8 10 -11 10 -2 0
-4 -4 -4 -10z"/>
<path d="M2331 1464 c0 -11 3 -14 6 -6 3 7 2 16 -1 19 -3 4 -6 -2 -5 -13z"/>
<path d="M1073 1453 c-7 -2 -13 -14 -13 -26 1 -22 1 -22 13 1 7 12 16 19 20
16 4 -4 7 -2 7 4 0 13 -7 14 -27 5z"/>
<path d="M1490 1451 c0 -6 4 -13 10 -16 6 -3 7 1 4 9 -7 18 -14 21 -14 7z"/>
<path d="M834 1408 c8 -57 20 -66 23 -17 2 22 -2 39 -8 39 -6 0 -7 5 -4 10 3
6 1 10 -5 10 -8 0 -10 -14 -6 -42z"/>
<path d="M2647 1429 c-3 -13 -2 -28 3 -34 8 -10 26 -131 22 -147 -1 -5 5 -8
14 -8 9 0 12 -5 8 -12 -5 -8 0 -7 11 2 11 9 16 10 11 3 -5 -9 1 -13 23 -13 21
0 32 6 36 20 5 16 13 19 48 16 36 -3 38 -3 12 4 -27 8 -26 8 12 7 23 -1 39 1
37 5 -3 5 0 8 5 8 6 0 11 -5 11 -10 0 -6 19 -9 43 -8 37 3 42 1 42 -19 0 -12
4 -25 8 -29 4 -4 6 4 6 17 -2 33 -16 88 -18 67 0 -10 -5 -18 -11 -18 -16 0
-12 18 10 40 17 17 17 20 4 20 -10 0 -14 6 -11 15 4 8 2 17 -3 20 -4 3 -10 0
-12 -7 -4 -12 -68 19 -68 34 0 4 -6 5 -14 2 -8 -3 -17 -1 -21 5 -3 6 -1 11 4
11 6 0 11 5 11 10 0 6 -12 10 -26 10 l-27 0 25 -32 c13 -18 44 -43 69 -56 24
-12 44 -28 44 -35 0 -8 -33 -17 -92 -26 -82 -12 -93 -16 -93 -33 0 -14 -5 -18
-16 -14 -9 3 -26 6 -38 6 -21 0 -24 7 -35 88 -14 98 -25 127 -34 91z"/>
<path d="M335 1430 c-15 -7 -10 -8 19 -5 21 2 41 6 44 9 9 9 -41 6 -63 -4z"/>
<path d="M791 1429 c-1 -9 7 -23 17 -30 15 -12 16 -12 6 1 -6 8 -14 22 -17 30
-5 13 -6 12 -6 -1z"/>
<path d="M1298 1433 c7 -3 16 -2 19 1 4 3 -2 6 -13 5 -11 0 -14 -3 -6 -6z"/>
<path d="M2340 1430 c0 -5 5 -10 11 -10 5 0 7 5 4 10 -3 6 -8 10 -11 10 -2 0
-4 -4 -4 -10z"/>
<path d="M708 1423 c-22 -6 -28 -25 -12 -41 8 -7 14 -8 14 -2 0 5 5 10 10 10
7 0 7 -7 0 -20 -6 -12 -9 -28 -6 -38 3 -9 2 -23 -3 -30 -6 -11 -13 -7 -29 16
-12 16 -19 32 -15 36 3 3 1 6 -5 6 -24 0 -17 -47 10 -77 15 -16 28 -21 45 -17
18 5 23 2 23 -14 0 -11 7 -25 15 -32 23 -19 20 12 -5 43 -21 26 -27 91 -10
102 24 15 -3 64 -32 58z"/>
<path d="M1331 1426 c2 -2 18 -6 34 -10 22 -5 26 -4 15 4 -14 9 -59 15 -49 6z"/>
<path d="M90 1410 c0 -5 5 -10 10 -10 6 0 10 5 10 10 0 6 -4 10 -10 10 -5 0
-10 -4 -10 -10z"/>
<path d="M2695 1410 c-3 -5 1 -10 9 -10 9 0 16 5 16 10 0 6 -4 10 -9 10 -6 0
-13 -4 -16 -10z"/>
<path d="M1025 1400 c-3 -5 -1 -10 4 -10 6 0 11 5 11 10 0 6 -2 10 -4 10 -3 0
-8 -4 -11 -10z"/>
<path d="M2090 1400 c0 -5 5 -10 11 -10 5 0 7 5 4 10 -3 6 -8 10 -11 10 -2 0
-4 -4 -4 -10z"/>
<path d="M2992 1385 c0 -16 2 -22 5 -12 2 9 2 23 0 30 -3 6 -5 -1 -5 -18z"/>
<path d="M1200 1383 c0 -8 -11 -13 -27 -12 l-28 1 25 8 c14 5 18 8 9 9 -9 1
-32 -6 -50 -14 -32 -15 -32 -16 -6 -12 18 3 31 -1 37 -12 8 -13 9 -14 10 -1 0
13 1 13 10 0 8 -12 10 -12 10 -1 0 10 3 11 14 2 13 -11 40 -18 119 -28 35 -5
37 -3 43 26 5 25 9 29 21 20 11 -9 12 -9 8 4 -11 27 -195 37 -195 10z m58 -27
c3 -15 1 -16 -17 -6 -12 6 -19 16 -15 21 9 15 28 5 32 -15z m99 11 c7 -12 -24
-43 -34 -33 -4 4 -1 11 6 16 10 5 6 8 -13 7 -19 -2 -25 -6 -21 -17 3 -9 -1 -7
-10 4 -8 11 -15 24 -15 28 0 11 80 7 87 -5z"/>
<path d="M2315 1385 c4 -11 8 -36 8 -55 0 -19 1 -25 4 -13 2 12 10 20 17 17 9
-3 11 6 8 33 -3 21 -7 32 -9 25 -4 -10 -8 -10 -21 0 -14 11 -15 10 -7 -7z"/>
<path d="M2612 1370 c0 -19 2 -27 5 -17 2 9 2 25 0 35 -3 9 -5 1 -5 -18z"/>
<path d="M184 1343 c3 -21 11 -77 17 -125 6 -48 15 -86 19 -83 4 2 1 44 -6 92
-8 48 -14 103 -16 121 -1 17 -6 32 -11 32 -6 0 -7 -17 -3 -37z"/>
<path d="M1032 1360 c0 -14 2 -19 5 -12 2 6 2 18 0 25 -3 6 -5 1 -5 -13z"/>
<path d="M1421 1377 c2 -1 15 -11 28 -22 l24 -20 -12 23 c-6 12 -19 22 -28 22
-9 0 -14 -1 -12 -3z"/>
<path d="M2014 1368 c-4 -7 -4 -10 1 -6 4 4 15 2 24 -5 14 -11 14 -10 2 6 -16
20 -18 21 -27 5z"/>
<path d="M2386 1354 c-11 -30 -6 -37 14 -19 11 10 17 22 14 26 -8 14 -21 11
-28 -7z"/>
<path d="M2574 1361 c-5 -5 -18 -11 -29 -13 -16 -3 -17 -5 -5 -10 16 -6 58 17
49 27 -3 2 -10 1 -15 -4z"/>
<path d="M2131 1343 c7 -12 15 -20 18 -17 3 2 -3 12 -13 22 -17 16 -18 16 -5
-5z"/>
<path d="M1386 1324 c-15 -10 -16 -14 -5 -15 8 0 29 -2 47 -5 17 -2 32 1 32 6
0 10 -5 12 -32 14 -7 1 -15 4 -18 8 -3 3 -14 0 -24 -8z"/>
<path d="M1607 1307 c-8 -12 -17 -38 -21 -57 l-6 -35 19 41 c11 23 24 45 30
48 6 4 11 11 11 17 0 17 -17 9 -33 -14z"/>
<path d="M1802 1290 c-32 -30 -27 -32 16 -8 49 28 48 28 26 28 -11 0 -30 -9
-42 -20z"/>
<path d="M1867 1292 c-10 -10 -17 -27 -17 -38 -1 -19 -1 -19 -15 0 -11 15 -18
17 -26 9 -17 -17 -1 -33 29 -32 15 1 42 -4 59 -9 29 -9 34 -8 50 14 l18 24 40
-35 c59 -52 80 -47 23 5 -18 16 -27 30 -21 30 7 0 18 -9 25 -20 7 -11 18 -20
25 -20 7 0 13 -6 13 -13 0 -7 9 -13 20 -14 22 -2 23 -4 -33 46 -15 13 -35 25
-44 26 -18 2 -60 18 -95 36 -25 13 -33 11 -51 -9z m18 -2 c-3 -5 1 -10 9 -10
9 0 16 -7 16 -16 0 -8 -5 -12 -11 -8 -6 3 -15 0 -20 -7 -6 -11 -9 -10 -15 4
-3 9 -1 24 6 32 14 17 24 20 15 5z m55 -25 c0 -8 -4 -15 -10 -15 -5 0 -10 7
-10 15 0 8 5 15 10 15 6 0 10 -7 10 -15z"/>
<path d="M2572 1293 c3 -19 58 -32 58 -15 0 5 -11 7 -25 4 -20 -3 -24 -1 -19
12 3 9 1 16 -6 16 -6 0 -10 -8 -8 -17z"/>
<path d="M302 1270 c0 -14 2 -19 5 -12 2 6 2 18 0 25 -3 6 -5 1 -5 -13z"/>
<path d="M2333 1283 c-18 -6 -16 -23 1 -23 17 0 30 16 19 23 -5 2 -14 2 -20 0z"/>
<path d="M2395 1279 c-10 -15 -2 -19 23 -12 12 3 19 9 16 14 -7 12 -31 11 -39
-2z"/>
<path d="M2538 1273 c7 -3 16 -2 19 1 4 3 -2 6 -13 5 -11 0 -14 -3 -6 -6z"/>
<path d="M1417 1258 c-15 -5 -25 -13 -22 -18 6 -9 55 11 55 23 0 4 -1 7 -2 6
-2 0 -15 -5 -31 -11z"/>
<path d="M2150 1264 c0 -5 -7 -31 -15 -59 l-15 -50 21 28 c11 15 29 27 40 27
17 0 19 -5 13 -42 -3 -24 -7 -49 -10 -55 -4 -15 -44 -18 -44 -3 0 25 -17 6
-27 -31 l-11 -41 31 6 c16 3 35 11 42 16 16 14 39 112 33 144 -3 14 -1 26 3
26 5 0 9 6 9 14 0 21 -27 27 -35 8 -6 -15 -8 -15 -21 2 -8 11 -14 16 -14 10z"/>
<path d="M503 1230 c1 -18 9 -26 25 -28 20 -3 23 0 20 19 -2 12 -9 24 -16 25
-7 1 -8 0 -2 -3 12 -6 14 -33 2 -33 -5 0 -14 10 -20 23 l-12 22 3 -25z"/>
<path d="M1259 1229 c-10 -6 -7 -9 14 -9 29 0 35 5 14 13 -8 3 -20 1 -28 -4z"/>
<path d="M1340 1229 c0 -5 9 -9 20 -9 11 0 20 2 20 4 0 2 -9 6 -20 9 -11 3
-20 1 -20 -4z"/>
<path d="M312 1200 c0 -19 2 -27 5 -17 2 9 2 25 0 35 -3 9 -5 1 -5 -18z"/>
<path d="M2100 1219 c0 -5 5 -7 10 -4 6 3 10 8 10 11 0 2 -4 4 -10 4 -5 0 -10
-5 -10 -11z"/>
<path d="M1516 1193 c-6 -14 -5 -15 5 -6 7 7 10 15 7 18 -3 3 -9 -2 -12 -12z"/>
<path d="M1800 1201 c0 -15 71 -72 81 -66 16 11 10 22 -21 35 -16 7 -30 16
-30 20 0 4 -7 10 -15 14 -8 3 -15 1 -15 -3z"/>
<path d="M1960 1200 c0 -5 5 -10 11 -10 5 0 7 5 4 10 -3 6 -8 10 -11 10 -2 0
-4 -4 -4 -10z"/>
<path d="M2888 1197 c-13 -5 -85 -12 -161 -15 -76 -2 -135 -7 -132 -11 7 -7
232 -2 259 6 10 3 22 -1 27 -8 6 -10 9 -11 9 -1 0 8 18 12 55 12 30 0 55 5 55
10 0 11 -2 12 -52 14 -20 1 -47 -2 -60 -7z"/>
<path d="M490 1160 c0 -5 5 -10 11 -10 5 0 7 5 4 10 -3 6 -8 10 -11 10 -2 0
-4 -4 -4 -10z"/>
<path d="M1904 1138 c-3 -5 -3 -12 0 -15 3 -4 6 -1 6 6 0 8 6 9 18 3 26 -14
97 -23 86 -12 -15 15 -103 29 -110 18z"/>
<path d="M1605 1130 c-3 -5 -1 -10 4 -10 6 0 11 5 11 10 0 6 -2 10 -4 10 -3 0
-8 -4 -11 -10z"/>
<path d="M605 1110 c27 -12 35 -12 35 0 0 6 -12 10 -27 9 -25 0 -26 -1 -8 -9z"/>
<path d="M43 1103 c-24 -2 -43 -9 -43 -14 0 -6 19 -8 48 -5 26 2 54 5 62 5 13
1 13 2 0 11 -8 5 -17 9 -20 8 -3 -1 -24 -3 -47 -5z"/>
<path d="M744 1095 c4 -11 -1 -15 -17 -15 -31 0 -47 -18 -47 -53 0 -16 -4 -26
-10 -22 -6 3 -10 -5 -10 -19 0 -14 4 -27 9 -30 5 -3 7 -15 4 -26 -3 -11 -2
-28 2 -37 4 -10 9 -43 11 -73 2 -30 8 -56 13 -58 6 -2 7 -10 4 -18 -3 -8 0
-21 7 -29 10 -12 10 -15 -1 -15 -10 -1 -9 -4 4 -14 23 -18 22 -23 -10 -31 -51
-12 -123 -47 -117 -56 3 -5 1 -9 -5 -9 -5 0 -21 -25 -35 -56 -27 -59 -28 -85
-5 -182 31 -129 201 -353 267 -351 24 0 25 1 7 8 -32 13 -130 116 -175 183
-51 77 -94 212 -87 273 10 90 80 155 201 186 55 14 74 33 23 24 -33 -6 -35 -5
-40 27 -12 65 -30 192 -42 296 -6 51 -5 52 20 52 14 0 25 5 25 10 0 6 20 10
44 10 39 0 44 2 39 20 -4 16 -14 20 -45 20 -32 0 -39 -3 -34 -15z"/>
<path d="M1522 1088 c-6 -13 -11 -17 -11 -10 -1 6 -5 12 -11 12 -5 0 -7 -7 -4
-15 5 -11 -1 -15 -20 -15 -18 0 -26 6 -27 18 0 11 -2 12 -6 4 -3 -8 -9 -9 -16
-4 -7 5 -21 12 -31 16 -16 5 -17 4 -6 -9 7 -9 15 -13 18 -10 13 12 31 -19 25
-43 -4 -17 -2 -23 6 -18 6 4 11 13 11 21 0 8 11 12 32 11 26 -1 35 4 46 27 8
16 12 30 9 33 -2 2 -9 -6 -15 -18z"/>
<path d="M2592 1103 c-12 -2 -20 -8 -17 -13 6 -10 45 -1 45 11 0 5 -1 8 -2 8
-2 -1 -13 -4 -26 -6z"/>
<path d="M1650 1080 c0 -5 5 -10 10 -10 6 0 10 5 10 10 0 6 -4 10 -10 10 -5 0
-10 -4 -10 -10z"/>
<path d="M1785 1080 c3 -5 11 -10 16 -10 6 0 7 5 4 10 -3 6 -11 10 -16 10 -6
0 -7 -4 -4 -10z"/>
<path d="M1880 1080 c0 -5 5 -10 11 -10 5 0 7 5 4 10 -3 6 -8 10 -11 10 -2 0
-4 -4 -4 -10z"/>
<path d="M360 1069 c-96 -4 -212 -8 -257 -9 -44 -2 -87 -7 -95 -12 -7 -5 68
-6 182 -2 107 4 247 7 310 8 l114 1 7 -35 c4 -19 10 -55 13 -80 18 -135 40
-266 48 -274 12 -14 10 5 -11 134 -10 63 -22 144 -26 180 -3 36 -10 72 -15 80
-10 17 -31 17 -270 9z"/>
<path d="M1715 1070 c-9 -14 4 -68 17 -77 8 -4 9 0 3 13 -5 10 -9 31 -9 47 -1
30 -2 32 -11 17z"/>
<path d="M1546 1052 c-3 -5 8 -13 25 -19 16 -6 29 -8 29 -4 0 11 -49 31 -54
23z"/>
<path d="M2180 1045 c-7 -8 -20 -15 -30 -15 -25 0 -29 -26 -15 -116 7 -43 14
-119 16 -169 l4 -90 -40 -6 c-22 -3 -34 -7 -27 -8 7 0 10 -6 7 -11 -5 -8 -12
-7 -23 2 -13 11 -14 11 -7 -2 8 -13 7 -13 -8 -1 -19 15 -23 41 -7 41 5 0 9 3
8 8 -1 4 1 17 6 30 7 22 40 30 49 12 3 -6 4 -5 3 2 -1 7 -13 14 -25 16 -18 3
-22 8 -18 24 14 51 -12 -4 -33 -71 -28 -89 -64 -144 -166 -256 -88 -96 -114
-116 -158 -119 -17 -2 -64 -6 -105 -11 -55 -6 -72 -5 -67 4 4 6 1 11 -8 11
-10 0 -13 -6 -10 -15 5 -11 2 -14 -12 -8 -11 3 -22 11 -26 17 -5 7 -8 6 -8 -3
0 -11 -5 -10 -25 3 -13 9 -32 16 -42 15 -10 0 5 -12 32 -25 46 -23 57 -25 145
-19 52 4 102 11 112 16 22 12 22 9 4 -59 -19 -71 -49 -125 -103 -189 -32 -37
-41 -53 -29 -53 9 0 16 3 16 8 0 4 17 25 38 47 21 22 49 63 61 90 13 28 27 57
31 65 4 9 11 35 15 58 5 32 11 42 25 42 10 0 21 4 24 9 3 5 16 7 29 5 20 -4
21 -4 2 5 -17 8 -18 10 -2 10 9 1 16 4 16 8 -4 23 2 36 11 27 13 -13 13 -147
0 -139 -3 2 -11 -3 -18 -11 -7 -8 -11 -14 -8 -14 2 0 -2 -24 -10 -52 -18 -68
-18 -70 5 -56 10 6 17 18 14 25 -3 7 1 13 8 13 11 0 11 3 -1 10 -12 7 -12 10
-1 10 7 0 11 6 7 15 -3 8 1 21 9 29 8 8 15 26 15 40 0 18 4 24 14 20 12 -5 14
2 9 33 -10 65 -8 108 5 106 6 -2 16 16 22 38 9 34 14 39 26 28 8 -6 18 -9 21
-5 4 4 2 10 -4 14 -8 5 -9 12 -2 22 8 13 12 12 28 -7 11 -13 31 -27 46 -33 37
-14 108 -12 138 3 23 12 17 13 -57 13 -84 -1 -116 10 -116 40 0 10 13 14 40
14 28 0 40 4 40 14 0 8 10 17 23 19 12 2 -2 5 -30 6 -52 1 -52 1 -36 21 13 14
30 20 61 20 24 0 41 -4 38 -9 -4 -5 2 -7 12 -5 9 3 28 1 42 -5 25 -10 24 -10
-7 -10 -17 -1 -34 -5 -37 -9 -6 -11 104 -3 124 9 13 7 13 8 0 9 -12 0 -12 2
-2 9 11 7 11 9 -2 14 -10 4 -16 1 -16 -8 0 -20 -9 -19 -100 13 -8 3 -18 4 -22
4 -5 -1 -8 3 -8 9 0 15 83 7 96 -10 9 -12 12 -11 17 2 3 9 0 20 -8 24 -33 19
-63 133 -35 133 6 0 10 -7 10 -16 0 -8 4 -13 9 -9 5 3 17 -2 25 -11 13 -13 22
-14 46 -5 25 8 30 7 30 -6 0 -12 3 -13 13 -4 8 6 16 8 19 6 3 -3 8 3 11 14 4
17 1 19 -23 15 -21 -5 -32 0 -47 20 -25 31 -29 32 -29 7 0 -11 3 -19 6 -18 3
1 6 -2 8 -8 2 -5 0 -11 -5 -12 -16 -5 -31 12 -38 45 -6 31 -5 33 14 27 12 -4
21 -2 21 4 0 6 -7 11 -15 11 -20 0 -31 30 -38 108 -5 41 -3 61 3 57 6 -3 10
-1 10 4 0 6 -4 11 -9 11 -5 0 -7 9 -4 20 6 24 0 26 -17 5z m-19 -70 c6 13 7 2
4 -34 -3 -33 -1 -59 6 -67 10 -12 9 -13 -5 -8 -9 3 -16 16 -16 29 0 12 -2 42
-4 66 -2 24 -1 33 1 19 5 -24 6 -24 14 -5z m29 -135 c0 -5 -7 -7 -15 -4 -8 4
-15 8 -15 10 0 2 7 4 15 4 8 0 15 -4 15 -10z m0 -185 c0 -8 -4 -15 -10 -15 -5
0 -10 7 -10 15 0 8 5 15 10 15 6 0 10 -7 10 -15z m-140 -105 c11 -7 7 -10 -18
-10 -20 0 -31 4 -27 10 8 13 26 13 45 0z"/>
<path d="M1789 1026 c6 -8 10 -20 9 -27 -2 -8 2 -13 9 -12 6 2 14 -5 17 -15 9
-25 64 -61 87 -55 25 7 25 23 -1 23 -12 0 -31 16 -48 38 -15 21 -33 37 -40 34
-6 -2 -12 3 -12 12 0 9 -7 16 -16 16 -13 0 -14 -3 -5 -14z"/>
<path d="M833 1011 c0 -11 5 -18 9 -15 4 3 5 11 1 19 -7 21 -12 19 -10 -4z"/>
<path d="M1402 1000 c2 -56 109 -133 142 -100 15 15 -2 25 -46 25 -37 0 -42 3
-64 43 -13 24 -22 47 -19 53 4 5 2 9 -4 9 -5 0 -9 -13 -9 -30z"/>
<path d="M2500 1013 c0 -11 3 -14 8 -7 4 6 14 14 22 17 10 4 8 6 -7 6 -16 1
-23 -5 -23 -16z"/>
<path d="M2950 1015 c14 -17 30 -20 30 -4 0 5 -4 7 -10 4 -5 -3 -10 -1 -10 4
0 6 -5 11 -11 11 -8 0 -8 -5 1 -15z"/>
<path d="M2991 1014 c0 -11 3 -14 6 -6 3 7 2 16 -1 19 -3 4 -6 -2 -5 -13z"/>
<path d="M1520 993 c0 -21 3 -24 9 -14 5 8 7 20 4 28 -8 21 -13 15 -13 -14z"/>
<path d="M2481 1004 c0 -11 3 -14 6 -6 3 7 2 16 -1 19 -3 4 -6 -2 -5 -13z"/>
<path d="M2560 1010 c0 -5 5 -10 10 -10 6 0 10 5 10 10 0 6 -4 10 -10 10 -5 0
-10 -4 -10 -10z"/>
<path d="M1690 1001 c0 -6 4 -13 10 -16 6 -3 7 1 4 9 -7 18 -14 21 -14 7z"/>
<path d="M2590 1001 c0 -6 4 -12 8 -15 5 -3 9 1 9 9 0 8 -4 15 -9 15 -4 0 -8
-4 -8 -9z"/>
<path d="M1885 990 c3 -5 8 -10 11 -10 2 0 4 5 4 10 0 6 -5 10 -11 10 -5 0 -7
-4 -4 -10z"/>
<path d="M2475 971 c-3 -5 -1 -12 5 -16 5 -3 10 1 10 9 0 18 -6 21 -15 7z"/>
<path d="M2520 968 c0 -3 9 -6 20 -5 11 1 20 5 20 9 0 3 -9 6 -20 5 -11 -1
-20 -5 -20 -9z"/>
<path d="M2720 972 c0 -15 51 -25 63 -13 8 8 5 11 -10 11 -12 0 -28 3 -37 6
-9 3 -16 2 -16 -4z"/>
<path d="M2580 960 c0 -5 5 -10 11 -10 5 0 7 5 4 10 -3 6 -8 10 -11 10 -2 0
-4 -4 -4 -10z"/>
<path d="M2095 897 c-9 -35 -15 -72 -13 -83 2 -10 12 16 22 59 22 95 15 113
-9 24z"/>
<path d="M361 941 c-9 -6 -10 -11 -2 -15 6 -4 11 -3 11 3 0 7 8 7 26 0 24 -8
25 -8 14 6 -14 17 -29 19 -49 6z"/>
<path d="M430 941 c0 -5 5 -13 10 -16 6 -3 10 -2 10 4 0 5 -4 13 -10 16 -5 3
-10 2 -10 -4z"/>
<path d="M465 940 c3 -5 8 -10 11 -10 2 0 4 5 4 10 0 6 -5 10 -11 10 -5 0 -7
-4 -4 -10z"/>
<path d="M2720 940 c0 -5 5 -10 10 -10 6 0 10 5 10 10 0 6 -4 10 -10 10 -5 0
-10 -4 -10 -10z"/>
<path d="M308 933 c7 -3 16 -2 19 1 4 3 -2 6 -13 5 -11 0 -14 -3 -6 -6z"/>
<path d="M2700 926 c0 -2 8 -10 18 -17 15 -13 16 -12 3 4 -13 16 -21 21 -21
13z"/>
<path d="M1740 909 c0 -5 5 -7 10 -4 6 3 10 8 10 11 0 2 -4 4 -10 4 -5 0 -10
-5 -10 -11z"/>
<path d="M2474 895 c-10 -39 0 -48 12 -10 6 19 7 35 3 35 -5 0 -11 -11 -15
-25z"/>
<path d="M2535 910 c3 -5 8 -10 11 -10 2 0 4 5 4 10 0 6 -5 10 -11 10 -5 0 -7
-4 -4 -10z"/>
<path d="M819 894 c-11 -13 -11 -18 -1 -21 7 -3 12 -23 12 -49 0 -26 4 -43 9
-39 16 9 9 84 -8 90 -13 5 -13 7 -1 15 8 5 12 12 9 15 -4 3 -12 -2 -20 -11z"/>
<path d="M1420 901 c0 -5 5 -13 10 -16 6 -3 10 -2 10 4 0 5 -4 13 -10 16 -5 3
-10 2 -10 -4z"/>
<path d="M1911 893 c7 -10 15 -20 16 -22 2 -2 3 5 3 17 0 14 -6 22 -16 22 -14
0 -15 -3 -3 -17z"/>
<path d="M560 890 c0 -5 5 -10 11 -10 5 0 7 5 4 10 -3 6 -8 10 -11 10 -2 0 -4
-4 -4 -10z"/>
<path d="M780 889 c0 -6 -9 -9 -20 -6 -24 6 -27 -8 -4 -17 11 -4 14 -14 9 -35
-4 -21 -2 -30 9 -34 9 -4 16 -2 16 3 0 6 -4 10 -10 10 -5 0 -10 5 -10 11 0 5
5 7 10 4 6 -3 10 1 10 9 0 8 -5 18 -10 21 -6 4 -8 11 -4 16 3 5 10 7 15 4 5
-3 6 1 3 9 -7 19 -14 21 -14 5z"/>
<path d="M1555 890 c-6 -10 -5 -11 15 -14 5 0 30 -23 54 -51 25 -27 45 -44 46
-37 0 6 -4 12 -10 12 -5 0 -10 4 -10 8 0 10 -74 92 -83 92 -3 0 -9 -4 -12 -10z"/>
<path d="M1664 889 c-3 -6 -1 -16 6 -22 10 -9 11 -9 5 2 -6 11 -4 13 8 8 10
-3 17 -2 17 2 0 14 -29 21 -36 10z"/>
<path d="M1335 879 c-9 -14 -2 -20 14 -10 8 6 9 11 3 15 -6 3 -14 1 -17 -5z"/>
<path d="M1750 874 c-60 -21 -70 -33 -29 -32 37 0 109 27 109 40 0 12 -30 9
-80 -8z"/>
<path d="M2687 870 c-3 -11 -1 -20 4 -20 5 0 9 2 9 4 0 2 3 11 6 20 3 9 2 16
-4 16 -5 0 -12 -9 -15 -20z"/>
<path d="M1390 871 c0 -6 4 -13 10 -16 6 -3 7 1 4 9 -7 18 -14 21 -14 7z"/>
<path d="M2371 862 c0 -13 9 -33 20 -45 18 -18 21 -19 15 -4 -3 10 -6 26 -6
35 0 14 -2 14 -9 3 -7 -11 -10 -9 -14 10 -4 24 -4 24 -6 1z"/>
<path d="M891 857 c-2 -27 35 -124 68 -174 34 -53 141 -156 141 -136 0 4 -20
24 -43 43 -59 47 -100 103 -127 175 -34 89 -39 101 -39 92z"/>
<path d="M2421 844 c0 -11 3 -14 6 -6 3 7 2 16 -1 19 -3 4 -6 -2 -5 -13z"/>
<path d="M2720 841 c0 -6 5 -13 10 -16 6 -3 10 1 10 9 0 9 -4 16 -10 16 -5 0
-10 -4 -10 -9z"/>
<path d="M2490 830 c0 -6 7 -10 15 -10 8 0 15 2 15 4 0 2 -7 6 -15 10 -8 3
-15 1 -15 -4z"/>
<path d="M2530 830 c0 -5 4 -10 9 -10 6 0 13 5 16 10 3 6 -1 10 -9 10 -9 0
-16 -4 -16 -10z"/>
<path d="M2700 825 c0 -8 4 -15 10 -15 5 0 7 7 4 15 -4 8 -8 15 -10 15 -2 0
-4 -7 -4 -15z"/>
<path d="M1947 790 c6 -48 10 -60 22 -60 4 0 5 16 3 35 -2 19 -8 35 -12 35 -5
0 -11 8 -14 18 -3 9 -2 -3 1 -28z"/>
<path d="M2760 815 c7 -9 15 -13 17 -11 7 7 -7 26 -19 26 -6 0 -6 -6 2 -15z"/>
<path d="M2430 812 c0 -12 19 -26 26 -19 2 2 -2 10 -11 17 -9 8 -15 8 -15 2z"/>
<path d="M2574 798 c-5 -8 0 -9 14 -6 12 4 22 2 22 -3 0 -5 -11 -9 -25 -9 -14
0 -25 5 -25 11 0 13 -42 1 -52 -15 -11 -16 -10 -36 2 -36 6 0 10 8 10 18 0 15
2 15 11 2 8 -11 12 -12 16 -2 7 17 23 15 37 -3 10 -14 14 -13 34 5 18 17 21
25 11 36 -14 17 -45 18 -55 2z"/>
<path d="M2670 800 c0 -5 5 -10 11 -10 5 0 7 5 4 10 -3 6 -8 10 -11 10 -2 0
-4 -4 -4 -10z"/>
<path d="M2725 800 c-4 -6 3 -10 14 -10 25 0 27 6 6 13 -8 4 -17 2 -20 -3z"/>
<path d="M2778 791 c-7 -12 -21 -21 -30 -21 -10 0 -18 -2 -18 -4 0 -2 -3 -11
-6 -20 -4 -10 -1 -16 10 -16 10 0 13 6 10 15 -5 11 -2 13 10 9 9 -3 13 -11 9
-17 -3 -6 -1 -7 5 -3 6 4 9 13 6 21 -4 9 3 15 22 17 15 2 30 10 32 18 3 8 1
12 -3 8 -5 -4 -14 -3 -21 3 -10 8 -16 5 -26 -10z"/>
<path d="M1739 783 c-13 -16 -12 -17 4 -4 9 7 17 15 17 17 0 8 -8 3 -21 -13z"/>
<path d="M1870 786 c0 -2 7 -9 15 -16 13 -11 14 -10 9 4 -5 14 -24 23 -24 12z"/>
<path d="M1285 761 c1 -10 15 -18 41 -22 21 -3 55 -10 74 -17 116 -38 490 -86
490 -62 0 6 -8 11 -17 11 -10 1 -40 3 -67 5 -27 2 -52 7 -55 12 -9 14 -51 25
-51 13 0 -5 8 -12 18 -14 20 -6 -93 2 -125 9 -13 2 -23 12 -23 21 0 12 -3 14
-10 7 -13 -13 -73 -4 -191 29 -76 22 -87 23 -84 8z"/>
<path d="M2367 769 c-30 -17 -19 -27 26 -24 23 2 54 4 70 4 15 1 27 6 27 11 0
6 -18 8 -47 4 -26 -3 -49 -1 -52 5 -4 6 -12 6 -24 0z"/>
<path d="M2645 760 c-3 -11 -3 -24 0 -30 3 -5 1 -10 -4 -10 -6 0 -11 5 -11 11
0 5 -4 8 -10 4 -14 -9 0 -35 20 -35 14 0 18 9 18 40 1 44 -3 50 -13 20z"/>
<path d="M797 763 c-2 -5 -1 -19 4 -33 l7 -25 1 27 c1 14 7 29 14 31 7 3 6 6
-5 6 -9 1 -19 -2 -21 -6z"/>
<path d="M1900 741 c0 -6 5 -13 10 -16 6 -3 10 1 10 9 0 9 -4 16 -10 16 -5 0
-10 -4 -10 -9z"/>
<path d="M2193 724 c-3 -8 -1 -20 6 -27 8 -8 11 -4 9 16 -3 31 -6 34 -15 11z"/>
<path d="M2572 720 c7 -11 18 -20 25 -20 19 0 16 6 -12 24 -25 17 -25 16 -13
-4z"/>
<path d="M1649 709 c-10 -6 -7 -9 14 -9 29 0 35 5 14 13 -8 3 -20 1 -28 -4z"/>
<path d="M2231 699 c-1 -15 5 -32 13 -38 17 -14 16 -2 -2 39 l-11 25 0 -26z"/>
<path d="M2262 697 c3 -24 21 -27 26 -4 2 8 -4 17 -13 21 -13 4 -16 1 -13 -17z"/>
<path d="M2516 709 c2 -4 -4 -10 -13 -12 -10 -3 1 -5 25 -6 48 -1 57 14 13 21
-17 2 -28 1 -25 -3z"/>
<path d="M2687 713 c-14 -13 -6 -20 18 -15 14 2 25 8 25 13 0 10 -34 12 -43 2z"/>
<path d="M2920 710 c0 -6 18 -10 40 -10 22 0 40 4 40 8 0 5 -18 9 -40 10 -22
1 -40 -3 -40 -8z"/>
<path d="M2304 691 c-11 -11 -2 -19 16 -16 11 2 52 5 90 6 39 1 70 5 70 10 0
7 -168 8 -176 0z"/>
<path d="M2887 683 c5 -13 2 -15 -15 -11 -12 4 -22 3 -22 -2 0 -9 40 -21 51
-15 9 6 -1 45 -12 45 -5 0 -6 -7 -2 -17z"/>
<path d="M2700 674 l-45 -13 50 6 c53 6 61 8 48 15 -4 3 -28 -1 -53 -8z"/>
<path d="M2968 663 c6 -2 18 -2 25 0 6 3 1 5 -13 5 -14 0 -19 -2 -12 -5z"/>
<path d="M2788 653 c6 -2 18 -2 25 0 6 3 1 5 -13 5 -14 0 -19 -2 -12 -5z"/>
<path d="M2920 640 c-13 -8 -12 -10 3 -10 9 0 17 5 17 10 0 12 -1 12 -20 0z"/>
<path d="M2950 639 c0 -5 5 -7 10 -4 6 3 10 8 10 11 0 2 -4 4 -10 4 -5 0 -10
-5 -10 -11z"/>
<path d="M1220 631 c0 -6 5 -13 10 -16 6 -3 10 1 10 9 0 9 -4 16 -10 16 -5 0
-10 -4 -10 -9z"/>
<path d="M1865 630 c4 -6 11 -8 16 -5 14 9 11 15 -7 15 -8 0 -12 -5 -9 -10z"/>
<path d="M2855 630 c-11 -5 -14 -9 -7 -9 7 -1 10 -5 7 -11 -3 -6 1 -7 9 -4 9
3 14 10 11 14 -3 5 1 11 7 13 7 3 9 5 3 6 -5 0 -19 -4 -30 -9z"/>
<path d="M703 610 c-47 -21 -74 -58 -94 -127 -10 -38 -10 -57 4 -119 20 -94
63 -159 169 -259 71 -67 138 -116 138 -100 0 13 -147 145 -162 145 -5 0 -8 5
-8 11 0 6 -11 20 -25 31 -33 26 -54 67 -76 148 -35 127 -11 219 69 263 55 31
46 35 -15 7z"/>
<path d="M2955 619 c-16 -6 -13 -8 13 -8 17 -1 32 3 32 7 0 11 -20 11 -45 1z"/>
<path d="M1550 610 c0 -5 5 -10 11 -10 5 0 7 5 4 10 -3 6 -8 10 -11 10 -2 0
-4 -4 -4 -10z"/>
<path d="M2286 612 c-2 -4 13 -6 35 -4 21 2 39 6 39 8 0 7 -69 4 -74 -4z"/>
<path d="M1585 601 c-3 -5 4 -13 16 -16 28 -9 36 1 10 14 -12 7 -22 7 -26 2z"/>
<path d="M2599 600 c-11 -7 -214 -31 -276 -33 -7 0 -13 -4 -13 -8 0 -5 19 -6
43 -4 75 9 262 27 275 28 6 0 12 4 12 8 0 12 -25 17 -41 9z"/>
<path d="M2705 600 l-60 -7 50 0 c28 -1 73 2 100 7 47 7 48 7 10 7 -22 0 -67
-3 -100 -7z"/>
<path d="M478 593 c6 -2 18 -2 25 0 6 3 1 5 -13 5 -14 0 -19 -2 -12 -5z"/>
<path d="M1880 585 c0 -8 4 -15 10 -15 5 0 7 7 4 15 -4 8 -8 15 -10 15 -2 0
-4 -7 -4 -15z"/>
<path d="M2398 593 c7 -3 16 -2 19 1 4 3 -2 6 -13 5 -11 0 -14 -3 -6 -6z"/>
<path d="M1468 583 c7 -3 16 -2 19 1 4 3 -2 6 -13 5 -11 0 -14 -3 -6 -6z"/>
<path d="M2287 579 c8 -8 16 -8 30 0 16 9 14 10 -11 11 -22 0 -27 -3 -19 -11z"/>
<path d="M410 570 c19 -13 30 -13 30 0 0 6 -10 10 -22 10 -19 0 -20 -2 -8 -10z"/>
<path d="M1191 564 c0 -11 3 -14 6 -6 3 7 2 16 -1 19 -3 4 -6 -2 -5 -13z"/>
<path d="M1275 550 c3 -5 11 -10 16 -10 6 0 7 5 4 10 -3 6 -11 10 -16 10 -6 0
-7 -4 -4 -10z"/>
<path d="M2160 548 c0 -8 121 1 130 9 3 3 -25 3 -63 1 -37 -2 -67 -6 -67 -10z"/>
<path d="M2970 549 c-13 -9 -13 -10 2 -6 9 3 19 1 22 -6 2 -7 5 -4 5 6 1 20
-7 21 -29 6z"/>
<path d="M2090 540 c0 -6 11 -8 28 -4 39 10 40 14 4 14 -18 0 -32 -5 -32 -10z"/>
<path d="M2828 543 c-16 -2 -28 -8 -28 -13 0 -5 12 -7 28 -4 15 3 50 9 77 13
l50 9 -50 -1 c-27 0 -62 -2 -77 -4z"/>
<path d="M1195 520 c3 -5 11 -10 16 -10 6 0 7 5 4 10 -3 6 -11 10 -16 10 -6 0
-7 -4 -4 -10z"/>
<path d="M2723 523 c9 -2 23 -2 30 0 6 3 -1 5 -18 5 -16 0 -22 -2 -12 -5z"/>
<path d="M176 504 c-11 -8 -16 -14 -10 -14 13 0 39 18 34 24 -3 2 -14 -2 -24
-10z"/>
<path d="M1248 495 c2 -14 8 -25 13 -25 14 0 11 26 -5 39 -11 9 -12 6 -8 -14z"/>
<path d="M2453 503 c-13 -2 -23 -8 -23 -12 0 -8 150 6 158 14 6 6 -103 4 -135
-2z"/>
<path d="M1340 490 c0 -5 5 -10 10 -10 6 0 10 5 10 10 0 6 -4 10 -10 10 -5 0
-10 -4 -10 -10z"/>
<path d="M2300 485 c0 -16 16 -20 24 -6 3 5 -1 11 -9 15 -9 3 -15 0 -15 -9z"/>
<path d="M2357 493 c-3 -5 11 -9 31 -10 26 -1 32 1 22 7 -18 12 -47 13 -53 3z"/>
<path d="M2765 479 c-93 -9 -197 -20 -230 -23 -114 -11 -290 -26 -320 -26 -25
0 -27 -2 -15 -14 13 -12 63 -10 365 20 422 41 435 43 435 54 0 10 -18 10 -235
-11z"/>
<path d="M2207 483 c-3 -5 10 -9 29 -10 19 -2 34 2 34 7 0 12 -57 14 -63 3z"/>
<path d="M95 470 c-16 -7 -17 -9 -3 -9 9 -1 20 4 23 9 7 11 7 11 -20 0z"/>
<path d="M40 450 c-8 -5 -10 -10 -5 -10 6 0 17 5 25 10 8 5 11 10 5 10 -5 0
-17 -5 -25 -10z"/>
<path d="M1330 435 c0 -8 5 -15 10 -15 6 0 10 7 10 15 0 8 -4 15 -10 15 -5 0
-10 -7 -10 -15z"/>
<path d="M2923 438 c-36 -17 -27 -33 27 -49 55 -17 56 -17 31 25 -20 35 -28
38 -58 24z m36 -22 c10 -12 8 -13 -8 -9 -12 3 -21 9 -21 14 0 14 16 11 29 -5z"/>
<path d="M1272 418 c2 -6 15 -18 29 -27 l24 -15 -24 27 c-26 29 -35 34 -29 15z"/>
<path d="M1410 404 c0 -8 5 -12 10 -9 6 4 8 11 5 16 -9 14 -15 11 -15 -7z"/>
<path d="M2037 409 c7 -7 15 -10 18 -7 3 3 -2 9 -12 12 -14 6 -15 5 -6 -5z"/>
<path d="M1979 408 c-10 -33 8 -57 32 -42 15 9 10 24 -8 24 -15 0 -16 2 -3 10
13 8 12 10 -2 10 -10 0 -18 -1 -19 -2z"/>
<path d="M2135 400 c3 -5 8 -10 11 -10 2 0 4 5 4 10 0 6 -5 10 -11 10 -5 0 -7
-4 -4 -10z"/>
<path d="M2207 370 c18 -16 57 -37 88 -45 30 -9 53 -21 49 -26 -3 -5 -2 -8 3
-7 16 5 83 -36 83 -51 0 -8 3 -12 6 -9 3 3 17 -6 31 -20 l26 -26 -18 -48 c-9
-27 -15 -51 -12 -54 3 -3 11 12 18 35 7 23 16 41 21 41 6 0 8 -5 6 -12 -3 -7
6 -27 18 -46 13 -19 20 -40 17 -49 -4 -11 -2 -14 5 -9 7 4 14 -3 18 -19 3 -14
10 -25 15 -25 14 0 12 6 -31 101 -64 142 -130 202 -287 261 -35 12 -63 26 -63
30 0 5 -6 8 -12 8 -7 0 2 -14 19 -30z"/>
<path d="M1370 376 c0 -2 7 -9 15 -16 9 -7 15 -8 15 -2 0 5 -7 12 -15 16 -8 3
-15 4 -15 2z"/>
<path d="M2046 364 c-8 -21 -8 -24 5 -24 5 0 7 5 4 10 -3 6 -1 10 4 10 6 0 11
5 11 10 0 16 -17 12 -24 -6z"/>
<path d="M2855 353 c-43 -43 -110 -137 -124 -174 -7 -19 -17 -42 -23 -52 -5
-11 -7 -21 -4 -24 3 -4 11 7 18 23 7 16 22 39 32 51 11 12 21 32 23 44 4 28
13 38 13 16 0 -10 5 -17 11 -17 6 0 9 12 8 28 -4 37 8 54 34 47 18 -5 19 -4 7
5 -11 9 -12 13 -2 17 6 2 12 11 12 19 0 8 6 14 14 14 8 0 16 7 20 15 9 23 -8
18 -39 -12z"/>
<path d="M2920 348 c5 -15 7 -34 4 -41 -2 -7 9 -78 26 -157 16 -79 30 -145 30
-147 0 -1 5 -3 11 -3 8 0 9 15 4 48 -5 26 -7 56 -7 67 1 11 -10 55 -25 98 -25
76 -28 117 -3 57 7 -16 16 -30 21 -30 10 0 -30 83 -55 115 -15 19 -16 19 -6
-7z"/>
<path d="M2110 341 c0 -10 19 -25 25 -20 1 2 -3 10 -11 17 -8 7 -14 8 -14 3z"/>
<path d="M2006 314 c-9 -25 -2 -26 17 -4 13 16 14 20 3 20 -8 0 -17 -7 -20
-16z"/>
<path d="M2880 315 c0 -8 4 -15 10 -15 5 0 7 7 4 15 -4 8 -8 15 -10 15 -2 0
-4 -7 -4 -15z"/>
<path d="M1808 303 c7 -3 16 -2 19 1 4 3 -2 6 -13 5 -11 0 -14 -3 -6 -6z"/>
<path d="M1935 301 c-3 -5 -2 -12 3 -15 5 -3 9 1 9 9 0 17 -3 19 -12 6z"/>
<path d="M2071 294 c0 -11 3 -14 6 -6 3 7 2 16 -1 19 -3 4 -6 -2 -5 -13z"/>
<path d="M1766 285 c4 -8 1 -22 -6 -30 -6 -8 -10 -20 -7 -27 2 -7 -2 -20 -9
-28 -8 -10 -10 -21 -4 -30 13 -20 19 -10 24 39 2 23 6 44 10 48 10 10 7 43 -4
43 -5 0 -7 -7 -4 -15z"/>
<path d="M2031 283 c-7 -8 -11 -16 -8 -19 2 -2 10 2 17 11 17 20 9 27 -9 8z"/>
<path d="M1663 268 c-6 -7 -13 -24 -16 -38 -10 -41 -80 -141 -130 -188 -26
-23 -42 -42 -37 -42 22 0 129 114 157 167 39 75 56 139 26 101z"/>
<path d="M1995 250 c-3 -6 -12 -48 -19 -95 -10 -70 -10 -85 1 -90 17 -6 24 11
19 50 -4 38 3 57 18 48 7 -5 7 -2 -1 8 -7 9 -8 20 -3 28 4 8 6 20 3 28 -3 7 0
13 7 13 6 0 8 5 5 10 -8 13 -22 13 -30 0z"/>
<path d="M2133 240 c-1 -11 2 -22 8 -25 5 -4 8 3 6 14 -4 28 -12 34 -14 11z"/>
<path d="M1925 231 c-3 -5 -2 -12 3 -15 5 -3 9 1 9 9 0 17 -3 19 -12 6z"/>
<path d="M2253 215 c0 -8 4 -12 9 -9 5 3 6 10 3 15 -9 13 -12 11 -12 -6z"/>
<path d="M2101 203 c7 -10 15 -20 16 -22 2 -2 3 3 3 11 0 9 -7 19 -16 22 -15
6 -15 4 -3 -11z"/>
<path d="M2227 189 c7 -7 15 -10 18 -7 3 3 -2 9 -12 12 -14 6 -15 5 -6 -5z"/>
<path d="M2395 191 c-3 -5 -1 -12 5 -16 5 -3 10 1 10 9 0 18 -6 21 -15 7z"/>
<path d="M2064 159 c-4 -7 -3 -9 4 -5 5 3 13 0 15 -6 4 -9 6 -10 6 -1 1 17
-16 25 -25 12z"/>
<path d="M2242 158 c3 -7 12 -14 22 -14 13 -2 13 -1 1 3 -8 2 -13 9 -10 14 4
5 1 9 -5 9 -7 0 -10 -6 -8 -12z"/>
<path d="M2770 160 c0 -5 5 -10 11 -10 5 0 7 5 4 10 -3 6 -8 10 -11 10 -2 0
-4 -4 -4 -10z"/>
<path d="M1922 151 c-11 -7 -11 -9 0 -14 9 -3 15 1 15 9 0 8 -1 14 -1 14 -1 0
-7 -4 -14 -9z"/>
<path d="M1733 143 c-7 -3 -13 -11 -13 -19 0 -9 -5 -12 -10 -9 -6 4 -10 3 -9
-2 4 -23 -2 -43 -11 -38 -6 4 -10 3 -9 -2 4 -16 -13 -43 -24 -36 -6 3 -7 1 -3
-6 11 -17 23 -5 63 56 35 56 38 64 16 56z"/>
<path d="M2434 126 c1 -8 5 -18 8 -22 4 -3 5 1 4 10 -1 8 -5 18 -8 22 -4 3 -5
-1 -4 -10z"/>
<path d="M2067 119 c7 -7 15 -10 18 -7 3 3 -2 9 -12 12 -14 6 -15 5 -6 -5z"/>
<path d="M2295 119 c-4 -6 -5 -12 -2 -15 2 -3 7 2 10 11 7 17 1 20 -8 4z"/>
<path d="M2774 85 c5 -64 16 -69 16 -7 0 29 -4 52 -9 52 -5 0 -8 -20 -7 -45z"/>
<path d="M1922 111 c-11 -7 -11 -9 0 -14 9 -3 15 1 15 9 0 8 -1 14 -1 14 -1 0
-7 -4 -14 -9z"/>
<path d="M2324 108 c-4 -6 -3 -8 4 -4 5 3 13 0 15 -6 3 -8 6 -6 6 5 1 19 -14
23 -25 5z"/>
<path d="M2366 95 c-3 -9 -6 -22 -5 -28 0 -7 5 -1 10 12 5 13 8 26 5 28 -2 2
-6 -3 -10 -12z"/>
<path d="M650 91 c0 -10 29 -36 34 -30 1 2 -6 12 -16 22 -10 9 -18 13 -18 8z"/>
<path d="M1744 91 c4 -5 1 -12 -4 -14 -6 -3 -5 -4 2 -3 15 3 23 26 8 26 -6 0
-9 -4 -6 -9z"/>
<path d="M1824 85 c11 -8 15 -15 10 -15 -6 0 -11 -16 -12 -36 -2 -39 21 -44
26 -6 4 28 22 29 22 1 0 -11 5 -17 10 -14 16 10 -19 61 -49 74 -24 11 -25 10
-7 -4z"/>
<path d="M2420 85 c12 -15 11 -16 -12 -19 -7 0 -13 -13 -13 -29 -1 -15 1 -25
4 -21 3 3 6 11 6 17 1 7 7 11 14 9 7 -1 10 2 7 7 -4 5 -2 12 4 16 15 9 12 22
-6 29 -14 5 -15 4 -4 -9z"/>
<path d="M2690 71 c-12 -24 -13 -44 -1 -37 8 5 22 56 15 56 -2 0 -8 -9 -14
-19z"/>
<path d="M1771 64 c0 -11 3 -14 6 -6 3 7 2 16 -1 19 -3 4 -6 -2 -5 -13z"/>
<path d="M2306 60 c7 -25 24 -43 33 -34 3 3 1 8 -5 12 -6 4 -16 16 -23 27 -11
18 -11 18 -5 -5z"/>
<path d="M2898 73 c7 -3 16 -2 19 1 4 3 -2 6 -13 5 -11 0 -14 -3 -6 -6z"/>
<path d="M2093 55 c0 -8 4 -12 9 -9 5 3 6 10 3 15 -9 13 -12 11 -12 -6z"/>
<path d="M2443 35 c-6 -19 -7 -33 -3 -30 12 7 30 65 21 65 -4 0 -12 -16 -18
-35z"/>
<path d="M1957 47 c-3 -8 1 -14 9 -14 8 0 14 6 14 14 0 7 -4 13 -9 13 -5 0
-11 -6 -14 -13z"/>
<path d="M1748 23 c5 -21 7 -23 10 -9 2 10 0 22 -6 28 -6 6 -7 0 -4 -19z"/>
<path d="M2257 27 c-13 -20 -13 -24 -1 -24 8 0 12 3 9 5 -3 3 0 11 7 19 6 7 9
16 6 19 -3 2 -12 -6 -21 -19z"/>
<path d="M2941 14 c0 -11 3 -14 6 -6 3 7 2 16 -1 19 -3 4 -6 -2 -5 -13z"/>
<path d="M1630 10 c0 -5 5 -10 11 -10 5 0 7 5 4 10 -3 6 -8 10 -11 10 -2 0 -4
-4 -4 -10z"/>
<path d="M1960 10 c0 -5 5 -10 10 -10 6 0 10 5 10 10 0 6 -4 10 -10 10 -5 0
-10 -4 -10 -10z"/>
<path d="M2195 10 c3 -5 11 -10 16 -10 6 0 7 5 4 10 -3 6 -11 10 -16 10 -6 0
-7 -4 -4 -10z"/>
</g>
</svg>
