<svg version="1.1" xmlns="http://www.w3.org/2000/svg" viewBox="-2915.3276550292967 -1059.8400146484375 8561.663952636718 2681.8560424804687"><desc>Created with Snap</desc><defs></defs><g><g transform="matrix(64.608,0,0,64.608,3271.6803,-752.64)"><g display="none"><rect x="-69.333" y="-18.667" display="inline" fill="#e4473e" width="473.333" height="236" style=""></rect></g><g display="none"><g display="inline"><g><polygon fill="#e4473e" points="32,31.952 0,31.952 0,0.048    " style=""></polygon></g><g><polygon fill="#e4473e" points="23.347,23.325 8.653,23.325 8.653,8.675    " style=""></polygon></g></g><g display="inline"><g><polygon fill="#e4473e" points="0,0.048 32,0.048 32,31.952    " style=""></polygon></g><g><polygon fill="#e4473e" points="8.653,8.675 23.347,8.675 23.347,23.325    " style=""></polygon></g></g></g><g display="none"><g display="inline"><rect x="8.675" y="8.675" fill="#e4473e" stroke="#e4473e" stroke-miterlimit="10" width="14.65" height="14.65" style=""></rect><rect x="0.5" y="0.326" fill="#e4473e" stroke="#e4473e" stroke-miterlimit="10" width="31" height="31.348" style=""></rect><line fill="#e4473e" stroke="#e4473e" stroke-miterlimit="10" x1="0.413" y1="0.413" x2="31.587" y2="31.587" style=""></line></g></g><g display="none"><rect x="0.5" y="0.326" display="inline" fill="#e4473e" stroke="#e4473e" stroke-miterlimit="10" width="31" height="31.348" style=""></rect><rect x="8.675" y="8.675" display="inline" fill="#e4473e" stroke="#e4473e" stroke-miterlimit="10" width="14.65" height="14.65" style=""></rect><line display="inline" fill="#e4473e" stroke="#e4473e" stroke-miterlimit="10" x1="0.413" y1="0.413" x2="31.587" y2="31.587" style=""></line></g><g><g><polygon points="9.382,8.675 23.325,8.675 23.325,22.618 32,31.293 32,0 0.707,0   " style="" fill="#e4473e"></polygon><polygon points="22.618,23.325 8.675,23.325 8.675,9.382 0,0.707 0,32 31.293,32   " style="" fill="#e4473e"></polygon></g></g><desc>Created with Snap</desc><defs></defs></g><g><g transform="matrix(1.024,0,0,-1.024,0,0)"><path d="M30 59L78 139Q114 109 159 90Q204 71 264 71Q336 71 378 101Q420 131 420 182Q420 203 414 221Q408 239 390 255Q373 272 341 288Q310 305 260 324Q206 345 168 365Q131 386 108 410Q85 435 75 464Q65 494 65 532Q65 569 80 602Q96 635 126 659Q157 684 201 698Q246 712 303 712Q365 712 414 699Q463 687 511 664L476 583Q442 603 396 616Q351 630 301 630Q235 630 197 604Q159 579 159 537Q159 517 164 501Q170 486 186 471Q203 457 232 442Q262 427 311 409Q369 387 409 364Q449 341 473 315Q497 289 507 259Q518 229 518 193Q518 144 499 106Q480 68 446 41Q413 15 366 1Q319 -12 264 -12Q191 -12 131 7Q71 27 30 59ZM738 520L738 0L648 0L648 520L738 520ZM693 609Q667 609 648 627Q630 646 630 672Q630 701 647 718Q664 735 693 735Q719 735 737 716Q756 698 756 672Q756 643 739 626Q722 609 693 609ZM1104 532Q1149 532 1184 517Q1220 502 1246 480L1246 520L1328 520L1328 12Q1328 -53 1311 -99Q1294 -145 1262 -175Q1231 -204 1187 -218Q1143 -232 1089 -232Q1042 -232 999 -221Q956 -210 922 -188L955 -110Q979 -129 1011 -142Q1043 -154 1089 -154Q1160 -154 1200 -117Q1241 -80 1241 3L1241 67Q1221 43 1183 21Q1146 0 1094 0Q1050 0 1008 17Q966 35 934 68Q902 102 882 150Q863 199 863 262Q863 320 882 369Q901 419 933 455Q966 491 1010 511Q1054 532 1104 532ZM1114 80Q1154 80 1186 98Q1218 116 1238 140L1238 412Q1215 428 1185 441Q1155 454 1113 454Q1082 454 1053 441Q1025 429 1003 405Q981 381 968 346Q955 312 955 267Q955 224 968 189Q981 155 1003 130Q1025 106 1053 93Q1082 80 1114 80ZM1570 520L1570 433Q1598 475 1640 503Q1683 532 1739 532Q1801 532 1840 502Q1879 473 1896 422Q1927 468 1969 500Q2012 532 2075 532Q2117 532 2148 518Q2180 504 2201 478Q2222 453 2232 417Q2243 382 2243 339L2243 0L2153 0L2153 332Q2153 386 2128 419Q2103 453 2059 453Q2036 453 2015 444Q1994 435 1975 419Q1956 404 1939 383Q1922 363 1908 341L1908 0L1818 0L1818 332Q1818 386 1793 419Q1768 453 1724 453Q1702 453 1681 444Q1660 436 1640 421Q1621 406 1604 386Q1587 366 1573 344L1573 0L1483 0L1483 520L1570 520ZM2363 257Q2363 315 2381 365Q2399 416 2431 453Q2464 490 2509 511Q2555 532 2609 532Q2654 532 2690 516Q2727 501 2754 478L2754 520L2836 520L2836 126Q2836 88 2854 76Q2873 65 2895 65L2876 -5Q2780 -5 2760 73Q2748 57 2732 41Q2717 26 2697 14Q2677 2 2652 -5Q2627 -12 2597 -12Q2548 -12 2505 7Q2463 26 2431 61Q2400 96 2381 145Q2363 195 2363 257ZM2617 68Q2655 68 2689 86Q2723 104 2746 133L2746 412Q2719 431 2686 442Q2654 454 2618 454Q2582 454 2552 440Q2522 426 2500 400Q2479 375 2467 339Q2455 303 2455 260Q2455 218 2467 182Q2479 147 2501 121Q2523 96 2552 82Q2582 68 2617 68Z" style="" fill="#1a283f"></path></g></g><g transform="matrix(1,0,0,1,-2700.2877,1302.528)"><g transform="matrix(1.024,0,0,-1.024,0,0)"><path d="M90 0L90 698Q132 703 180 705Q229 708 283 708Q348 708 399 692Q450 676 485 648Q520 620 538 580Q556 541 556 495Q556 439 534 395Q513 352 474 322Q436 292 382 276Q328 261 263 261Q221 261 185 264L185 0L90 0ZM275 340Q365 340 413 379Q462 419 462 487Q462 552 415 590Q369 628 281 628Q254 628 230 627Q206 626 185 624L185 345Q201 343 223 341Q246 340 275 340ZM970 526L943 433Q924 441 898 441Q870 441 843 429Q817 417 796 393Q776 369 763 331Q751 294 751 243L751 0L661 0L661 520L748 520L748 407Q757 431 772 454Q787 477 807 494Q828 511 855 521Q882 532 915 532Q930 532 944 530Q959 529 970 526ZM1446 260Q1446 299 1433 334Q1421 369 1398 395Q1376 421 1345 436Q1315 452 1279 452Q1200 452 1156 400Q1112 348 1112 262Q1112 223 1124 187Q1137 152 1159 125Q1182 99 1212 83Q1243 68 1279 68Q1318 68 1349 82Q1380 96 1401 121Q1423 147 1434 182Q1446 217 1446 260ZM1020 260Q1020 323 1040 373Q1060 424 1094 459Q1129 494 1176 513Q1224 532 1279 532Q1333 532 1380 513Q1428 494 1463 459Q1498 424 1518 374Q1538 324 1538 262Q1538 200 1518 149Q1499 99 1464 63Q1429 27 1381 7Q1334 -12 1279 -12Q1223 -12 1175 8Q1128 28 1093 64Q1059 100 1039 150Q1020 200 1020 260ZM1855 -12Q1807 -12 1764 7Q1722 26 1690 61Q1659 96 1641 145Q1623 195 1623 257Q1623 316 1641 366Q1660 417 1691 453Q1723 490 1765 511Q1807 532 1854 532Q1906 532 1943 511Q1981 490 2002 468L2002 740L2092 740L2092 126Q2092 88 2110 76Q2129 65 2151 65L2132 -5Q2037 -5 2016 71Q1993 39 1954 13Q1915 -12 1855 -12ZM1875 68Q1912 68 1945 85Q1979 103 2002 131L2002 389Q1983 413 1949 433Q1916 454 1874 454Q1838 454 1808 439Q1779 424 1758 398Q1737 372 1726 336Q1715 301 1715 260Q1715 218 1727 183Q1739 148 1760 122Q1782 97 1811 82Q1841 68 1875 68ZM2755 65L2736 -5Q2688 -5 2660 14Q2632 33 2621 69Q2586 33 2540 10Q2495 -12 2441 -12Q2407 -12 2375 -2Q2344 9 2319 32Q2295 55 2280 92Q2266 129 2266 182L2266 520L2356 520L2356 194Q2356 133 2381 100Q2407 68 2458 68Q2500 68 2538 84Q2576 101 2606 129L2606 520L2696 520L2696 135Q2696 113 2701 99Q2706 86 2714 78Q2722 71 2733 68Q2744 65 2755 65ZM3234 501L3207 425Q3178 439 3153 445Q3128 452 3097 452Q3062 452 3031 439Q3001 426 2979 401Q2957 377 2944 342Q2932 307 2932 262Q2932 221 2943 186Q2955 151 2976 124Q2997 98 3026 83Q3055 68 3091 68Q3129 68 3156 76Q3183 84 3214 101L3242 25Q3210 8 3172 -2Q3134 -12 3085 -12Q3029 -12 2984 8Q2939 28 2907 64Q2875 100 2857 150Q2840 200 2840 260Q2840 316 2857 365Q2875 415 2908 452Q2941 489 2987 510Q3034 532 3092 532Q3137 532 3170 524Q3203 516 3234 501ZM3369 501L3388 665L3457 665L3457 501L3601 501L3601 423L3457 423L3457 172Q3457 143 3463 123Q3470 103 3481 91Q3492 79 3507 73Q3523 68 3540 68Q3565 68 3587 76Q3609 84 3629 95L3654 23Q3634 11 3600 -1Q3566 -12 3529 -12Q3454 -12 3410 37Q3367 86 3367 179L3367 423L3277 423L3277 501L3369 501ZM3834 520L3834 0L3744 0L3744 520L3834 520ZM3789 609Q3763 609 3744 627Q3726 646 3726 672Q3726 701 3743 718Q3760 735 3789 735Q3815 735 3833 716Q3852 698 3852 672Q3852 643 3835 626Q3818 609 3789 609ZM4380 260Q4380 299 4367 334Q4355 369 4332 395Q4310 421 4279 436Q4249 452 4213 452Q4134 452 4090 400Q4046 348 4046 262Q4046 223 4058 187Q4071 152 4093 125Q4116 99 4146 83Q4177 68 4213 68Q4252 68 4283 82Q4314 96 4335 121Q4357 147 4368 182Q4380 217 4380 260ZM3954 260Q3954 323 3974 373Q3994 424 4028 459Q4063 494 4110 513Q4158 532 4213 532Q4267 532 4314 513Q4362 494 4397 459Q4432 424 4452 374Q4472 324 4472 262Q4472 200 4452 149Q4433 99 4398 63Q4363 27 4315 7Q4268 -12 4213 -12Q4157 -12 4109 8Q4062 28 4027 64Q3993 100 3973 150Q3954 200 3954 260ZM4679 520L4679 433Q4707 475 4750 503Q4794 532 4854 532Q4942 532 4985 479Q5029 426 5029 339L5029 0L4939 0L4939 329Q4939 386 4913 419Q4887 453 4839 453Q4816 453 4794 444Q4772 436 4751 421Q4731 406 4713 386Q4696 366 4682 344L4682 0L4592 0L4592 520L4679 520ZM5139 42L5177 117Q5203 94 5242 80Q5282 66 5327 66Q5383 66 5411 84Q5440 103 5440 132Q5440 147 5434 160Q5429 173 5414 185Q5400 197 5375 208Q5350 220 5310 234Q5236 259 5200 293Q5164 328 5164 389Q5164 419 5177 445Q5191 471 5216 490Q5242 510 5278 521Q5315 532 5362 532Q5413 532 5451 521Q5490 511 5521 495L5496 421Q5469 437 5434 447Q5400 457 5358 457Q5306 457 5279 436Q5252 415 5252 390Q5252 378 5256 368Q5261 358 5273 349Q5285 340 5305 331Q5325 322 5355 312Q5404 295 5438 277Q5472 260 5493 239Q5514 218 5523 193Q5532 169 5532 139Q5532 104 5517 76Q5502 48 5475 28Q5448 9 5409 -2Q5371 -12 5324 -12Q5264 -12 5217 3Q5170 18 5139 42Z" style="" fill="#1a283f"></path></g></g></g></svg>